<?xml version="1.0" encoding="utf-8"?>
<!-- Generator: Adobe Illustrator 16.0.2, SVG Export Plug-In . SVG Version: 6.00 Build 0)  -->
<!DOCTYPE svg PUBLIC "-//W3C//DTD SVG 1.1//EN" "http://www.w3.org/Graphics/SVG/1.1/DTD/svg11.dtd">
<svg version="1.1" id="Layer_1" xmlns="http://www.w3.org/2000/svg" viewBox="0 0 512 512">
<style type="text/css">
<![CDATA[
	.st0{fill:url(#SVGID_1_);}
	.st1{fill:#FFFFFF;}
]]>
</style>
<g>
	<linearGradient id="SVGID_1_" gradientUnits="userSpaceOnUse" x1="255.9995117" y1="0" x2="255.9994965" y2="512.0004883">
		<stop  offset="0" style="stop-color:#FA76EC"/>
		<stop  offset="1" style="stop-color:#93568D"/>
	</linearGradient>
	<rect class="st0" width="512" height="512"/>
	<g>
		<path class="st1" d="M100.1523438,481.7646484c-10.5009766,0-18.6923828-4.2890625-24.5742188-12.8671875
			c-5.8833008-8.578125-8.8242188-20.9765625-8.8242188-37.1953125c0-17.8125,3.0693359-31.2890625,9.2109375-40.4296875
			c6.1401367-9.140625,14.9995117-13.7109375,26.578125-13.7109375c22.1713867,0,33.2578125,17.2265625,33.2578125,51.6796875
			c0,17.0625-3.1289063,30.0830078-9.3867188,39.0585938C120.15625,477.2763672,111.4023438,481.7646484,100.1523438,481.7646484z
			 M101.7695313,390.5693359c-12.234375,0-18.3515625,13.4765625-18.3515625,40.4296875
			c0,25.21875,5.9995117,37.828125,18,37.828125c11.8125,0,17.71875-12.8203125,17.71875-38.4609375
			C119.1367188,403.8349609,113.3466797,390.5693359,101.7695313,390.5693359z"/>
		<path class="st1" d="M193.2460938,480.0771484v-100.828125h29.109375c37.1708984,0,55.7578125,16.3828125,55.7578125,49.1484375
			c0,15.5634766-5.1572266,28.0664063-15.46875,37.5117188c-10.3129883,9.4462891-24.1416016,14.1679688-41.484375,14.1679688
			H193.2460938z M209.9101563,393.4521484v72.4921875h13.359375c11.7651367,0,20.9179688-3.234375,27.4570313-9.703125
			s9.8085938-15.609375,9.8085938-27.421875c0-23.578125-12.2114258-35.3671875-36.6328125-35.3671875H209.9101563z"/>
		<path class="st1" d="M377.1132813,480.0771484h-18.3515625l-9.0703125-25.6640625h-39.65625l-8.71875,25.6640625h-18.28125
			l37.7578125-100.828125h18.84375L377.1132813,480.0771484z M345.2617188,440.7724609l-13.9921875-40.21875
			c-0.421875-1.3115234-0.8681641-3.4208984-1.3359375-6.328125h-0.28125c-0.421875,2.671875-0.890625,4.78125-1.40625,6.328125
			l-13.8515625,40.21875H345.2617188z"/>
		<path class="st1" d="M450.3085938,379.2490234l-33.046875,64.1953125v36.6328125h-16.734375v-36.28125l-32.203125-64.546875
			h19.0546875l19.828125,43.2421875c0.234375,0.5166016,0.9375,2.4609375,2.109375,5.8359375h0.2109375
			c0.421875-1.5,1.1953125-3.4453125,2.3203125-5.8359375l20.7421875-43.2421875H450.3085938z"/>
	</g>
	<g>
		<polygon class="st1" points="225.0947266,328.0234375 246.8325195,345.7148438 252.2680664,306.2490234 225.7734375,319.8574219 
			201.9970703,304.2070313 201.9970703,337.5488281 		"/>
		<polygon class="st1" points="257.0234375,318.4960938 255.6640625,328.0234375 311.3691406,311.6914063 312.0488281,302.8457031 
					"/>
		<path class="st1" d="M332.4287109,135.4560547c16.3037109-54.4350586,10.1904297-70.765625,11.5488281-108.1904297
			c-88.3134766,66.6831055-59.78125,145.6152344-64.5361328,144.2543945
			c-41.4389648-57.8374023-82.199707-107.5102539-144.0185547-133.3671875
			c0-6.1245117-10.1899414,89.1381836,119.5629883,134.7280273c-91.03125,11.5683594-84.2382813,68.7250977-84.2382813,68.7250977
			c2.0385742,29.9399414,54.347168,42.8686523,54.347168,42.8686523c-10.1899414,14.96875-0.6796875,30.6191406,0,29.2578125
			c8.8310547-4.7626953,25.1347656-12.9277344,35.3251953-18.3710938l-2.7167969,15.6503906l54.3457031-17.6914063
			c6.7929688-30.6210938,21.7382813-85.7368164-10.1904297-108.8710938
			C301.8583984,183.0878906,317.484375,174.9223633,332.4287109,135.4560547z M217.6220703,225.2753906
			c-6.793457,0-12.2285156-5.4443359-12.2285156-12.2475586c0-6.8051758,5.4350586-12.9291992,12.2285156-12.9291992
			c6.7929688,0,12.9072266,6.1240234,12.9072266,12.9291992
			C230.5292969,219.8310547,224.4150391,225.2753906,217.6220703,225.2753906z"/>
	</g>
</g>
</svg>
