<?xml version="1.0" encoding="utf-8"?>
<!DOCTYPE svg PUBLIC "-//W3C//DTD SVG 1.1//EN" "http://www.w3.org/Graphics/SVG/1.1/DTD/svg11.dtd">
<svg version="1.1" id="Layer_1" xmlns="http://www.w3.org/2000/svg" xmlns:xlink="http://www.w3.org/1999/xlink" viewBox="0 0 512 512">
<style type="text/css">
<![CDATA[
    .st0{fill:url(#SVGID_5_);}
    .st1{fill:#FFFFFF;}
]]>
</style>
<linearGradient id="SVGID_5_" gradientUnits="userSpaceOnUse" x1="255.9995117" y1="0" x2="255.9994965" y2="512.0004883">
    <stop  offset="0" style="stop-color:#0A9A15"/>
    <stop  offset="0.2892004" style="stop-color:#0E9118"/>
    <stop  offset="0.7685342" style="stop-color:#1A7720"/>
    <stop  offset="0.994382" style="stop-color:#206925"/>
</linearGradient>
<rect id="apps_bg_400" x="-2" y="-1" class="st0" width="516" height="516"/>
<g transform="translate(-3.3359375,285.2793)">
    <path class="st1" d="M250.845-144.923c0,1.446-1.446,1.446-1.446,1.446h-1.445c-1.445,0-1.445-1.446-2.89-2.891
        c0,0-1.445-1.445-1.445-2.891s0-1.445,1.445-1.445l2.89,1.445C249.399-147.813,250.845-146.368,250.845-144.923 M224.83-159.376
        c0-7.226-2.891-11.562-7.226-11.562c0,0,0,1.445-1.445,1.445v2.891h4.336c0,2.89,1.445,4.335,1.445,7.226H224.83 M275.415-166.602
        c2.891,0,4.336,2.89,5.781,7.226h2.891c-1.445-1.445-1.445-2.891-1.445-4.336c0-1.444,0-2.89-1.445-4.335
        c-1.445-1.445-2.891-2.891-4.336-2.891c0,0-1.445,1.445-2.891,1.445C273.97-168.047,275.415-168.047,275.415-166.602
         M232.057-143.477c-1.445,0-1.445,0-1.445-1.446c0-1.445,0-2.891,1.445-4.336c2.89,0,4.335-1.445,4.335-1.445
        c1.445,0,1.445,1.445,1.445,1.445c0,1.445-1.445,2.891-4.335,5.782H232.057 M216.158-144.923
        c-5.781-2.891-7.227-7.227-7.227-14.453c0-4.336,0-7.226,2.891-10.117c1.445-2.891,4.336-4.336,7.227-4.336
        c2.89,0,4.335,1.445,7.227,4.336c1.445,4.336,2.891,8.671,2.891,13.007v1.445v1.445h1.445v-1.445c1.445,0,1.445-2.891,1.445-8.672
        c0-4.335,0-8.671-2.891-13.007s-5.782-7.227-11.563-7.227c-4.336,0-8.672,2.891-10.117,7.227
        c-2.891,5.781-3.469,10.118-3.469,17.343c0,5.781,2.023,11.563,7.805,17.344C213.268-143.477,214.713-143.477,216.158-144.923
         M396.82,58.864c1.445,0,1.445-0.578,1.445-1.879c0-3.179-1.445-6.937-5.781-11.129c-4.336-4.335-11.563-7.081-20.234-8.237
        c-1.445-0.146-2.891-0.146-2.891-0.146c-1.445-0.288-1.445-0.288-2.891-0.288c-1.445-0.145-4.336-0.434-5.781-0.723
        c4.336-13.441,5.781-25.293,5.781-35.699c0-14.453-2.891-24.569-8.672-33.242c-5.78-8.672-11.562-13.008-18.788-14.453
        c-1.445,1.445-1.445,1.445-1.445,2.891c7.227,2.891,14.453,8.672,18.788,17.343c4.336,10.116,5.781,18.789,5.781,28.906
        c0,8.094-1.445,20.089-7.227,35.41c-5.78,2.313-11.562,7.66-15.897,16.042c0,1.302,0,2.024,1.445,2.024
        c0,0,1.445-1.301,2.891-3.759c2.891-2.457,4.336-4.914,7.227-7.37c4.335-2.458,7.226-3.759,11.562-3.759
        c7.227,0,14.453,1.013,18.789,3.035c5.781,1.88,8.672,3.902,10.117,6.216c1.445,2.168,2.891,4.19,4.336,6.07
        C395.375,57.998,396.82,58.864,396.82,58.864 M263.853-150.704c-1.445-1.445-1.445-4.336-1.445-7.227c0-5.781,0-8.671,2.891-13.007
        c2.891-2.891,5.781-4.336,8.672-4.336c4.336,0,7.227,2.891,10.117,5.781c1.445,4.336,2.891,7.226,2.891,11.562
        c0,7.227-2.891,11.563-8.672,13.008c0,0,1.445,1.446,2.891,1.446c2.891,0,4.336,1.445,7.227,2.891
        c1.445-8.672,2.891-14.454,2.891-21.68c0-8.671-1.445-14.453-4.336-18.789c-4.336-4.336-8.672-5.781-14.453-5.781
        c-4.336,0-8.672,1.445-13.008,4.336c-2.89,4.336-4.335,7.227-4.335,11.563c0,7.226,1.445,13.007,4.335,18.789
        C260.962-152.149,262.407-150.704,263.853-150.704 M281.196-127.579c-18.789,13.008-33.242,18.79-44.804,18.79
        c-10.117,0-20.234-4.336-28.906-11.563c1.445,2.891,2.891,5.781,4.336,7.227l8.672,8.672c5.781,5.781,13.008,8.672,20.234,8.672
        c10.117,0,21.679-5.781,36.132-15.898l13.008-8.672c2.891-2.891,5.781-5.781,5.781-10.117c0-1.445,0-2.891-1.445-2.891
        c-1.445-2.891-8.672-7.226-23.125-11.563c-13.008-5.781-23.125-8.672-28.906-8.672c-4.336,0-11.562,2.891-21.679,8.672
        c-8.672,5.782-14.453,11.563-14.453,17.344c0,0,1.445,1.445,2.891,4.336c8.672,7.227,17.344,11.563,26.015,11.563
        c11.563,0,26.015-5.782,44.804-20.235v2.891C281.196-129.024,281.196-127.579,281.196-127.579 M314.438,164.371
        c5.781,10.869,15.898,16.332,27.461,16.332c2.891,0,5.781-0.434,8.672-1.301c2.891-0.577,5.78-1.59,7.226-2.746
        c1.445-1.012,2.891-2.023,4.336-3.18c2.891-1.012,2.891-1.734,4.336-2.457l24.57-21.245c5.781-4.611,11.563-8.644,18.789-12.142
        c5.781-3.468,11.563-5.78,14.453-7.081c4.336-1.156,7.227-2.891,10.117-5.203c1.445-2.168,2.891-4.915,2.891-8.384
        c0-4.19-2.891-7.37-5.781-9.683c-2.891-2.312-5.781-3.902-8.672-4.914s-5.781-3.324-10.117-7.227
        c-2.891-3.759-5.781-8.961-7.227-15.753l-1.445-8.384c-1.445-3.901-1.445-6.792-2.891-8.382c0-0.435,0-0.579-1.445-0.579
        s-4.336,1.302-5.781,3.758c-2.891,2.457-5.781,5.203-8.672,8.094c-1.445,2.891-5.781,5.493-8.672,7.949
        c-4.336,2.457-8.672,3.758-11.563,3.758c-11.562,0-17.343-3.18-21.679-9.395c-2.891-4.625-4.336-9.972-5.781-16.043
        c-2.891-2.457-4.336-3.758-7.227-3.758c-7.227,0-10.117,7.516-10.117,22.691v4.77v16.766v12.863v6.214v4.337
        c0,1.301-1.445,4.191-1.445,8.672c-1.445,4.48-1.445,9.567-1.445,15.319l-2.891,16.044v0.245 M104.87,156.683
        c13.441,1.965,28.906,6.171,46.395,12.589c17.488,6.359,28.183,9.684,32.086,9.684c10.117,0,18.5-4.481,25.437-13.138
        c1.445-2.805,1.445-6.1,1.445-9.886c0-13.659-8.238-30.931-24.715-51.887l-9.828-13.152c-2.023-2.746-4.48-6.938-7.66-12.574
        c-3.035-5.637-5.781-9.973-7.949-13.008c-1.879-3.324-4.914-6.648-8.816-9.973c-3.758-3.324-8.094-5.491-12.863-6.648
        c-6.07,1.157-10.262,3.18-12.285,5.927c-2.023,2.745-3.18,5.78-3.469,8.96c-0.434,3.035-1.301,5.059-2.746,6.07
        c-1.445,0.867-3.902,1.59-7.227,2.313c-0.723,0-2.024,0-3.902,0.145h-3.903c-7.66,0-12.863,0.867-15.609,2.313
        c-3.613,4.191-5.492,8.961-5.492,14.02c0,2.313,0.579,6.215,1.734,11.707c1.156,5.348,1.735,9.684,1.735,12.718
        c0,5.927-1.735,11.853-5.348,17.778c-3.613,6.215-5.492,10.839-5.492,14.135c1.445,5.607,10.984,9.553,28.472,11.865
         M152.999,25.262c0-9.973,2.601-20.957,7.949-33.966c5.203-13.007,10.406-21.679,15.464-27.46
        c-0.289-1.445-1.012-1.445-2.168-1.445l-1.445-1.446c-4.191,4.336-9.25,14.453-15.32,28.906c-6.07,13.007-9.25,25.004-9.25,33.819
        c0,6.504,1.59,12.141,4.48,17.055c3.18,4.77,10.84,11.708,22.98,20.523l15.32,9.973c16.332,14.164,25.004,23.992,25.004,29.773
        c0,3.035-1.445,6.07-5.781,9.395c-2.891,3.469-6.793,5.202-10.117,5.202c-0.289,0-0.434,0.29-0.434,1.013
        c0,0.145,1.445,3.035,4.48,8.672c6.07,8.237,19.078,12.285,36.421,12.285c31.797,0,56.367-13.008,75.156-39.023
        c0-7.226,0-11.707-1.446-13.586v-5.348c0-9.395,1.446-16.477,4.337-21.102s5.781-6.793,10.117-6.793
        c2.891,0,5.781,1.012,8.672,3.18c1.445-11.128,1.445-20.813,1.445-29.484c0-13.151,0-23.991-2.891-34.109
        c-1.445-8.671-4.336-15.897-7.227-21.679c-2.892-4.335-5.782-8.672-8.673-13.007s-4.335-8.671-7.226-13.008
        c-1.445-5.781-2.891-10.117-2.891-17.344c-4.336-7.226-7.227-14.453-11.563-21.68c-2.891-7.227-5.782-14.453-8.673-20.234
        l-13.007,10.117c-14.452,10.117-26.015,14.453-36.132,14.453c-8.672,0-15.898-1.445-20.234-7.227l-8.671-7.227
        c0,4.336-1.445,10.117-4.336,15.898l-9.105,17.344c-4.047,10.117-6.215,15.898-6.648,20.234c-0.578,2.891-1.012,5.781-1.301,5.781
        l-10.84,21.679c-11.707,21.679-17.632,41.77-17.632,58.391c0,3.324,0.289,6.792,0.867,10.261
        C156.178,39.57,152.999,33.355,152.999,25.262 M256.482,161.986c-18.789,0-33.242,2.544-43.359,7.588v-0.434
        c-7.227,8.672-15.32,13.152-26.594,13.152c-7.082,0-18.21-2.746-33.242-8.237c-15.175-5.204-28.616-9.192-40.324-11.823
        c-1.156-0.333-3.758-0.824-7.949-1.489c-4.047-0.649-7.805-1.314-11.129-1.979c-3.035-0.649-6.504-1.634-10.262-2.963
        c-3.613-1.142-6.504-2.631-8.672-4.437c-1.995-1.821-2.977-3.874-2.977-6.172c0-2.313,0.492-4.784,1.474-7.415
        c0.925-1.589,1.937-3.179,2.948-4.625c1.012-1.589,1.879-3.035,2.457-4.479c0.868-1.302,1.445-2.602,2.023-4.047
        c0.578-1.302,1.157-2.602,1.445-4.192c0.289-1.444,0.578-2.891,0.578-4.335c0-1.445-0.578-5.781-1.734-13.441
        c-1.157-7.516-1.735-12.285-1.735-14.309c0-6.359,1.445-11.418,4.625-15.031c3.18-3.613,6.215-5.492,9.395-5.492h16.621
        c1.301,0,3.325-0.722,6.359-2.456c1.012-2.313,1.879-4.192,2.458-5.927c0.722-1.734,1.012-3.035,1.3-3.612
        c0.289-0.867,0.579-1.735,0.867-2.458c0.578-1.012,1.301-2.168,2.313-3.323c-1.156-1.445-1.734-3.325-1.734-5.638
        c0-1.589,0-3.034,0.289-3.901c0-5.203,2.458-12.575,7.66-22.259l5.059-9.104c4.191-7.806,7.371-13.586,9.683-19.367
        c2.458-5.781,5.059-14.453,7.95-26.015c2.313-10.117,7.805-20.234,16.476-30.352l10.84-13.008
        c7.516-8.672,12.429-15.898,15.175-21.68c2.746-5.781,4.191-13.007,4.191-18.789c0-2.891-0.723-11.563-2.313-26.015
        c-1.445-14.453-2.168-28.906-2.168-41.914c0-10.117,0.867-17.343,2.746-24.57s5.203-14.453,10.117-20.234
        c4.336-5.781,10.117-11.563,18.789-14.454c8.672-2.89,18.789-4.335,30.352-4.335c4.336,0,8.672,0,13.008,1.445
        c4.336,0,10.116,1.445,17.343,4.335c5.78,2.891,11.563,5.782,15.898,10.118c5.781,4.336,10.117,11.562,14.452,18.789
        c2.891,8.672,5.781,17.343,7.228,28.906c1.444,7.227,1.444,14.453,2.891,24.57c0,8.672,1.445,14.453,1.445,18.789
        c1.445,4.336,1.445,10.117,2.891,17.343c1.445,5.781,2.891,11.563,5.781,15.898c2.891,5.781,5.781,11.562,10.117,17.343
        c4.336,7.227,10.117,14.453,15.898,23.125c13.007,14.453,23.124,30.352,28.905,46.249c7.226,14.453,11.563,33.242,11.563,53.331
        c0,9.974-1.445,19.657-4.337,29.051c2.892,0,4.337,1.156,5.782,3.18s2.891,6.36,4.336,13.152l1.445,10.695
        c1.445,3.18,2.891,6.216,7.227,8.816c2.891,2.602,5.781,4.77,10.117,6.504c2.891,1.445,7.227,3.469,10.117,6.07
        c2.891,2.891,4.336,5.926,4.336,9.105c0,4.914-1.445,8.527-4.336,11.128c-2.891,2.892-5.781,4.915-10.117,6.216
        c-2.891,1.445-8.672,4.335-17.344,8.411c-7.227,4.278-14.454,9.467-21.68,15.609l-14.453,12.299
        c-5.78,5.637-11.562,9.685-15.897,12.141c-4.336,2.603-10.117,3.902-15.898,3.902l-10.117-1.155
        c-11.563-3.035-18.79-8.816-23.125-17.634c-23.125-2.803-41.913-4.191-53.476-4.191"/>
</g>
</svg>
