<?xml version="1.0" encoding="utf-8"?>
<!-- Generator: Adobe Illustrator 16.0.2, SVG Export Plug-In . SVG Version: 6.00 Build 0)  -->
<!DOCTYPE svg PUBLIC "-//W3C//DTD SVG 1.1//EN" "http://www.w3.org/Graphics/SVG/1.1/DTD/svg11.dtd">
<svg version="1.1" id="Layer_1" xmlns="http://www.w3.org/2000/svg" xmlns:xlink="http://www.w3.org/1999/xlink" viewBox="0 0 512 512">
<style type="text/css">
<![CDATA[
    .st0{fill:url(#SVGID_5_);}
    .st1{fill:#FFFFFF;}
]]>
</style>
<linearGradient id="SVGID_5_" gradientUnits="userSpaceOnUse" x1="255.9995117" y1="0" x2="255.9994965" y2="512.0004883">
    <stop  offset="0" style="stop-color:#0A9A15"/>
    <stop  offset="0.2892004" style="stop-color:#0E9118"/>
    <stop  offset="0.7685342" style="stop-color:#1A7720"/>
    <stop  offset="0.994382" style="stop-color:#206925"/>
</linearGradient>
<rect id="apps_bg_400" x="-2" y="-1" class="st0" width="516" height="517"/>
<g>
    <path class="st1" d="M380.01,270.209c0.64,68.766,60.327,91.649,60.988,91.941c-0.506,1.613-9.537,32.611-31.447,64.629
        c-18.938,27.68-38.595,55.26-69.56,55.832c-30.425,0.559-40.209-18.043-74.995-18.043c-34.774,0-45.645,17.471-74.445,18.602
        c-29.889,1.133-52.649-29.934-71.747-57.512c-39.021-56.414-68.842-159.415-28.8-228.942c19.892-34.527,55.44-56.392,94.024-56.953
        c29.35-0.56,57.053,19.745,74.995,19.745c17.931,0,51.596-24.419,86.985-20.832c14.817,0.617,56.404,5.984,83.11,45.073
        C426.967,185.083,379.495,212.719,380.01,270.209 M322.829,101.353c15.869-19.208,26.548-45.947,23.635-72.552
        c-22.874,0.919-50.532,15.242-66.937,34.438c-14.703,17.001-27.581,44.21-24.106,70.289
        C280.916,135.5,306.961,120.572,322.829,101.353"/>
</g>
</svg>
