<?xml version="1.0" encoding="utf-8"?>
<!-- Generator: Adobe Illustrator 16.0.2, SVG Export Plug-In . SVG Version: 6.00 Build 0)  -->
<!DOCTYPE svg PUBLIC "-//W3C//DTD SVG 1.1//EN" "http://www.w3.org/Graphics/SVG/1.1/DTD/svg11.dtd">
<svg version="1.1" xmlns="http://www.w3.org/2000/svg" viewBox="0 0 512 512">
<style type="text/css">
<![CDATA[
    .st0{display:inline;fill:#4A148C;}
    .st1{display:inline;fill:url(#text3669_1_);}
    .st2{display:inline;fill:url(#text3678_1_);}
    .st3{display:inline;fill:#C62828;}
    .st4{display:inline;fill:#FFFFFF;}
    .st5{fill:url(#SVGID_5_);}
    .st6{fill:url(#SVGID_7_);}
    .st7{fill:url(#rect3663_1_);}
    .st8{font-size:144;}
    .st9{fill:#FFFFFF;}
    .st10{display:inline;fill:url(#text3682_1_);}
    .st11{display:inline;}
    .st12{display:inline;fill:#D32F2F;}
    .st13{display:none;}
    .st14{display:inline;fill:url(#SVGID_1_);}
    .st15{display:inline;fill:url(#SVGID_2_);}
    .st16{display:inline;fill:url(#SVGID_3_);}
    .st17{display:inline;fill:url(#SVGID_4_);}
    .st18{display:inline;fill:url(#SVGID_6_);}
    .st19{font-family:'SegoeUI-BoldItalic';}
]]>
</style>



<g id="win_apps">
    <linearGradient id="SVGID_5_" gradientUnits="userSpaceOnUse" x1="255.9995117" y1="0" x2="255.9994965" y2="512.0004883">
        <stop  offset="0" style="stop-color:#0A9A15"/>
        <stop  offset="0.2892004" style="stop-color:#0E9118"/>
        <stop  offset="0.7685342" style="stop-color:#1A7720"/>
        <stop  offset="0.994382" style="stop-color:#206925"/>
    </linearGradient>
    <rect class="st5" width="512" height="512"/>
    <g id="Layer_3_copy_6">
        <g>
            <path class="st9" d="M145.8051758,470.5878906l-2.8828125-22.4296875h-36.140625l-11.8125,22.4296875h-25.59375
                l58.1484375-100.828125h27.0703125l14.4140625,100.828125H145.8051758z M137.5786133,396.6894531
                c-0.0473633-0.75-0.0825195-1.5820313-0.1054688-2.4960938c-0.0244141-0.9140625-0.0244141-1.7929688,0-2.6367188
                c0.0229492-0.84375,0.0581055-1.6054688,0.1054688-2.2851563c0.0458984-0.6796875,0.0932617-1.1835938,0.140625-1.5117188
                h-0.421875c-0.0947266,0.421875-0.2583008,0.9609375-0.4921875,1.6171875
                c-0.2353516,0.65625-0.5043945,1.3710938-0.8085938,2.1445313c-0.3056641,0.7734375-0.6572266,1.5820313-1.0546875,2.4257813
                c-0.3989258,0.84375-0.8085938,1.6640625-1.2304688,2.4609375l-18.421875,34.3125h25.9453125L137.5786133,396.6894531z"/>
            <path class="st9" d="M270.3984375,398.4472656c0,4.96875-0.8671875,9.7148438-2.6015625,14.2382813
                s-4.4296875,8.4960938-8.0859375,11.9179688c-3.6557617,3.421875-8.2963867,6.1523438-13.9213867,8.1914063
                s-12.3520508,3.0585938-20.1796875,3.0585938h-14.1328125l-7.3125,34.734375h-22.921875l21.4453125-100.828125h34.59375
                c5.7182617,0,10.6630859,0.7382813,14.8359375,2.2148438c4.1713867,1.4765625,7.6049805,3.4921875,10.300293,6.046875
                s4.6992188,5.578125,6.0117188,9.0703125S270.3984375,394.3691406,270.3984375,398.4472656z M246.3520508,399.9941406
                c0-3.890625-1.3129883-6.9960938-3.9375-9.3164063c-2.6259766-2.3203125-6.4931641-3.4804688-11.6015625-3.4804688h-8.9296875
                l-6.6796875,31.4296875h10.40625c3.6088867,0,6.7148438-0.5039063,9.3164063-1.5117188s4.7460938-2.3671875,6.4335938-4.078125
                s2.940918-3.6914063,3.7617188-5.9414063C245.940918,404.8457031,246.3520508,402.4785156,246.3520508,399.9941406z"/>
            <path class="st9" d="M361.1015625,398.4472656c0,4.96875-0.8681641,9.7148438-2.6015625,14.2382813
                c-1.734375,4.5234375-4.4296875,8.4960938-8.0859375,11.9179688s-8.296875,6.1523438-13.921875,8.1914063
                s-12.3515625,3.0585938-20.1796875,3.0585938h-14.1328125l-7.3125,34.734375h-22.921875l21.4453125-100.828125h34.59375
                c5.71875,0,10.6630859,0.7382813,14.8359375,2.2148438c4.171875,1.4765625,7.6044922,3.4921875,10.3007813,6.046875
                c2.6953125,2.5546875,4.6992188,5.578125,6.0117188,9.0703125
                C360.4443359,390.5839844,361.1015625,394.3691406,361.1015625,398.4472656z M337.0546875,399.9941406
                c0-3.890625-1.3125-6.9960938-3.9375-9.3164063c-2.6259766-2.3203125-6.4931641-3.4804688-11.6015625-3.4804688h-8.9296875
                l-6.6796875,31.4296875h10.40625c3.609375,0,6.7148438-0.5039063,9.3164063-1.5117188s4.7460938-2.3671875,6.4335938-4.078125
                s2.9414063-3.6914063,3.7617188-5.9414063C336.6435547,404.8457031,337.0546875,402.4785156,337.0546875,399.9941406z"/>
            <path class="st9" d="M434.2265625,393.1035156c-1.453125-0.890625-3.0585938-1.7695313-4.8164063-2.6367188
                s-3.6328125-1.6289063-5.625-2.2851563c-1.9931641-0.65625-4.0898438-1.1953125-6.2929688-1.6171875
                c-2.2041016-0.421875-4.5-0.6328125-6.890625-0.6328125c-2.671875,0-4.921875,0.3632813-6.75,1.0898438
                s-3.28125,1.6289063-4.359375,2.7070313c-1.0791016,1.078125-1.8525391,2.2382813-2.3203125,3.4804688
                c-0.46875,1.2421875-0.703125,2.4023438-0.703125,3.4804688c0,1.546875,0.2460938,2.9648438,0.7382813,4.2539063
                s1.265625,2.53125,2.3203125,3.7265625s2.4365234,2.4140625,4.1484375,3.65625
                c1.7109375,1.2421875,3.7851563,2.6132813,6.2226563,4.1132813c3.1875,1.96875,6.0117188,3.9492188,8.4726563,5.9414063
                s4.5585938,4.125,6.2929688,6.3984375c1.7333984,2.2734375,3.046875,4.7460938,3.9375,7.4179688
                c0.8896484,2.671875,1.3359375,5.671875,1.3359375,9c0,1.921875-0.2226563,4.03125-0.6679688,6.328125
                c-0.4462891,2.296875-1.2070313,4.6054688-2.2851563,6.9257813c-1.0791016,2.3203125-2.5664063,4.5585938-4.4648438,6.7148438
                s-4.2783203,4.0546875-7.1367188,5.6953125c-2.859375,1.640625-6.2929688,2.9648438-10.3007813,3.9726563
                s-8.6835938,1.5117188-14.0273438,1.5117188c-3,0-5.9179688-0.2011719-8.7539063-0.5976563
                c-2.8369141-0.3984375-5.53125-0.9394531-8.0859375-1.6171875c-2.5556641-0.6796875-4.9335938-1.4414063-7.1367188-2.2851563
                c-2.2041016-0.84375-4.1484375-1.7109375-5.8359375-2.6015625l3.8671875-19.96875
                c1.7333984,1.265625,3.6210938,2.4609375,5.6601563,3.5859375s4.171875,2.109375,6.3984375,2.953125
                c2.2255859,0.84375,4.5351563,1.5,6.9257813,1.96875s4.8046875,0.703125,7.2421875,0.703125
                c2.671875,0,4.9453125-0.2929688,6.8203125-0.8789063c1.8740234-0.5859375,3.3984375-1.3945313,4.5703125-2.4257813
                c1.1708984-1.03125,2.0146484-2.2265625,2.53125-3.5859375c0.515625-1.359375,0.7734375-2.8125,0.7734375-4.359375
                s-0.2460938-2.9414063-0.7382813-4.1835938s-1.3007813-2.4375-2.4257813-3.5859375s-2.6132813-2.34375-4.4648438-3.5859375
                c-1.8525391-1.2421875-4.1132813-2.6367188-6.7851563-4.1835938c-2.859375-1.59375-5.4609375-3.3164063-7.8046875-5.1679688
                c-2.3447266-1.8515625-4.359375-3.9140625-6.046875-6.1875s-3-4.8046875-3.9375-7.59375
                c-0.9384766-2.7890625-1.40625-5.8945313-1.40625-9.3164063c0-3.890625,0.7265625-7.7109375,2.1796875-11.4609375
                c1.4521484-3.75,3.7265625-7.1015625,6.8203125-10.0546875s7.0419922-5.3320313,11.8476563-7.1367188
                c4.8046875-1.8046875,10.5351563-2.7070313,17.1914063-2.7070313c2.765625,0,5.4375,0.1523438,8.015625,0.4570313
                c2.5771484,0.3046875,5.0380859,0.7148438,7.3828125,1.2304688c2.34375,0.515625,4.5458984,1.1015625,6.609375,1.7578125
                c2.0625,0.65625,3.9375,1.3359375,5.625,2.0390625L434.2265625,393.1035156z"/>
        </g>
    </g>
    <g>
        <path id="App_Store" class="st9" d="M86.862793,229.1713867v-45.8896484c0-4.203125,3.453125-7.6411133,7.6831055-7.6411133
            h81.0913086l-35.3051758,61.1821289H94.5458984C90.315918,236.8227539,86.862793,233.3916016,86.862793,229.1713867z
             M144.6269531,323.1386719l-25.8789063,17.5341797c-3.4824219,2.3662109-5.9453125,0.8671875-5.4619141-3.3105469
            l3.453125-29.9970703c0.4804688-4.1787109,3.8686523-5.8867188,7.5336914-3.7978516l20.027832,11.4404297
            C147.9594727,317.1064453,148.1088867,320.7802734,144.6269531,323.1386719z M150.8417969,306.2304688l-20.027832-11.4453125
            c-3.6616211-2.0917969-4.9521484-6.7822266-2.8222656-10.4287109l92.7407227-160.7617188
            c2.1030273-3.652832,6.8457031-4.9335938,10.5053711-2.8144531l20.027832,11.4150391
            c3.6635742,2.1186523,4.9204102,6.8129883,2.8222656,10.4526367l-92.7392578,160.7719727
            C159.2480469,307.0683594,154.5014648,308.3193359,150.8417969,306.2304688z M221.4223633,236.8227539l35.3051758-61.1821289
            h20.3291016l28.6689453,61.1821289H221.4223633z M336.4101563,255.0810547
            c-8.0166016-4.0029297-47.9472656-95.7260742-58.1796875-119.6577148
            c-10.2402344-23.9321289-41.1645508-87.6357422-31.1606445-92.5922852
            c7.1137695-3.5546875,32.6616211,46.6083984,51.8149414,76.7236328
            C318.0087891,149.671875,358,227.3227539,362.921875,236.1660156c4.8964844,8.8652344-4.7109375,16.2558594-10.0537109,18.46875
            C347.5214844,256.8466797,344.4238281,259.0527344,336.4101563,255.0810547z M362.6503906,297.2402344l-12.0644531-18.9746094
            c-2.4960938-3.9472656-1.2001953-8.8212891,2.8457031-10.9013672l11.5009766-5.8886719
            c4.0556641-2.0625,9.1298828-0.3896484,11.2871094,3.7392578l9.5175781,18.2265625
            c2.1650391,4.1210938,0.6904297,9.4111328-3.2128906,11.7412109l-8.2246094,4.8964844
            C370.3955078,302.4375,365.1445313,301.1523438,362.6503906,297.2402344z M407.0537109,347.0117188
            c-2.5214844-8.0390625-21.7666016-8.5712891-30.3828125-20.6777344c-8.6455078-12.0644531-1.5009766-18.2802734,1.5-21.1503906
            C413.1201172,285.5869141,407.0537109,347.0117188,407.0537109,347.0117188z M425.0371094,229.1713867
            c0,4.2202148-3.4511719,7.6513672-7.6826172,7.6513672h-40.5908203c-0.4472656-2.3588867-1.1748047-4.71875-2.4003906-6.9321289
            c-1.0576172-1.8823242-3.7275391-6.9614258-7.4492188-14.0380859
            c-5.3730469-10.2163086-13.0878906-24.8256836-21.3486328-40.2119141h71.7841797
            c4.2324219,0,7.6845703,3.4379883,7.6845703,7.6411133v45.8896484H425.0371094L425.0371094,229.1713867z"/>
    </g>
</g>

</svg>
