<?xml version="1.0" encoding="utf-8"?>

<!DOCTYPE svg PUBLIC "-//W3C//DTD SVG 1.1//EN" "http://www.w3.org/Graphics/SVG/1.1/DTD/svg11.dtd">
<svg version="1.1" id="Layer_1" xmlns="http://www.w3.org/2000/svg" viewBox="0 0 512 512">
<style type="text/css">
<![CDATA[
	.st0{display:none;opacity:0.4;}
	.st1{display:none;fill:#FFFFFF;}
	.st2{display:inline;fill:#FFFFFF;}
	.st3{fill:#FFFFFF;}
	.st4{fill:#78909C;}
]]>
</style>
<rect class="st4" width="512" height="512"/>
<g>
	<g>
		<path class="st3" d="M320.9589844,310.765625v-8.3359375l-1.2109375-0.4667969
			C319.3378906,301.7958984,309.5429688,298,296.4824219,298c-13.9814453,0-26.0546875,4.2675781-35.8544922,12.6679688
			C250.8139648,302.2675781,238.7612305,298,224.7578125,298c-13.0576172,0-22.855957,3.7958984-23.2646484,3.9628906
			l-1.1879883,0.4667969v7.7226563c-3.965332,0.7421875-6.4291992,2.078125-6.4291992,4.2304688v79.546875h58.5830078
			c2.027832,1.828125,5.0136719,2.9570313,8.3125,2.9570313c3.3085938,0,6.28125-1.1289063,8.2929688-2.9570313h57.1289063
			v-79.546875C326.1953125,312.6162109,324.203125,311.4667969,320.9589844,310.765625L320.9589844,310.765625z
			 M259.9960938,387.6669922c-4.8681641-2.0126953-21.6201172-8.3779297-38.3979492-8.3779297
			c-6.6269531,0-12.5,1.0068359-17.5151367,3.0195313v-77.25c2.9389648-0.9609375,10.8881836-3.2626953,20.6801758-3.2626953
			c12.894043,0,23.9638672,3.8974609,32.9926758,11.4775391v46.1191406l2.2402344-2.4628906V387.6669922z M317.1601563,382.3291016
			c-5.3789063-2.15625-11.5390625-3.2441406-18.3759766-3.2441406c-16.7763672,0-32.7294922,6.4267578-37.5166016,8.5419922
			v-30.6972656l2.21875,2.4628906v-46.1191406c9.0351563-7.578125,20.1035156-11.4775391,32.9960938-11.4775391
			c9.7705078,0,17.7626953,2.3017578,20.6777344,3.2626953V382.3291016z"/>
	</g>
	<g class="st0">
		<path class="st2" d="M199.2670898,451.9736328v8.3359375l1.2109375,0.4746094
			c0.4111328,0.1660156,10.2060547,3.9628906,23.2651367,3.9628906c13.9819336,0,26.0556641-4.2714844,35.8505859-12.6689453
			c9.8144531,8.3955078,21.8671875,12.6689453,35.8701172,12.6689453c13.0634766,0,22.8564453-3.796875,23.2646484-3.9628906
			l1.1884766-0.4746094v-7.7226563c3.9658203-0.7421875,6.4296875-2.0761719,6.4296875-4.2285156v-79.5478516h-58.5830078
			c-2.0273438-1.828125-5.0107422-2.9570313-8.3125-2.9570313c-3.3041992,0-6.28125,1.1289063-8.2929688,2.9570313h-57.1230469
			v79.5478516C194.03125,450.1230469,196.0229492,451.2734375,199.2670898,451.9736328L199.2670898,451.9736328z
			 M260.2304688,375.0703125c4.8671875,2.0136719,21.6210938,8.3789063,38.3955078,8.3789063
			c6.6279297,0,12.5-1.0058594,17.515625-3.0195313v77.2451172c-2.9375,0.9599609-10.8876953,3.2685547-20.6806641,3.2685547
			c-12.8964844,0-23.9638672-3.8984375-32.9941406-11.4794922V403.34375l-2.2363281,2.4638672V375.0703125L260.2304688,375.0703125z
			 M203.065918,380.4101563c5.3789063,2.15625,11.5390625,3.2441406,18.3759766,3.2441406
			c16.7758789,0,32.7299805-6.4257813,37.5170898-8.5410156v30.6894531l-2.2207031-2.4638672v46.1201172
			c-9.0341797,7.5791016-20.1010742,11.4785156-32.9951172,11.4785156c-9.7744141,0-17.762207-2.3076172-20.6772461-3.2675781
			V380.4101563L203.065918,380.4101563z"/>
	</g>
	<g id="mp3_1_">
		<path class="st3" d="M162.6958008,275.8046875v135.5722656c3.1972656,0.4589844,6.4604492,0.6962891,9.7832031,0.6962891
			h9.7832031V275.1035156h-9.7832031C169.1582031,275.1035156,165.8950195,275.3476563,162.6958008,275.8046875z
			 M338.8027344,275.1035156v136.9765625h9.7822266c3.3212891,0,6.5888672-0.2402344,9.7832031-0.6953125v-135.578125
			c-3.1933594-0.4589844-6.4609375-0.7011719-9.7832031-0.7011719L338.8027344,275.1035156L338.8027344,275.1035156z
			 M417.0722656,255.5371094C417.0722656,169.0820313,346.9853516,99,260.5332031,99
			c-86.4541016,0-156.5390625,70.0820313-156.5390625,156.5371094c0,18.7773438,3.3110352,36.7792969,9.3730469,53.4638672
			c-5.9541016,10.1533203-9.3730469,21.9716797-9.3730469,34.5869141c0,27.3222656,15.9980469,50.9003906,39.1347656,61.890625
			V281.6992188c-6.1538086,2.9228516-11.7958984,6.7441406-16.7719727,11.28125
			c-1.8310547-8.9375-2.7958984-18.1875-2.7958984-27.6601563c0-75.6455078,61.324707-136.9702148,136.972168-136.9702148
			c75.6455078,0,136.9707031,61.324707,136.9707031,136.9702148c0,9.4765625-0.9638672,18.7265625-2.7958984,27.6601563
			c-4.9833984-4.5371094-10.6162109-8.3583984-16.7724609-11.28125v123.7832031
			c23.1435547-10.9941406,39.140625-34.5732422,39.140625-61.8964844c0-12.6132813-3.421875-24.4375-9.3759766-34.5830078
			C413.7587891,292.3164063,417.0722656,274.3144531,417.0722656,255.5371094z"/>
		<path class="st1" d="M212.8139648,350.8330078v-26.8417969c0-3.7070313-3.0048828-6.7119141-6.7128906-6.7119141
			s-6.7109375,3.0048828-6.7109375,6.7119141v26.8417969c0,3.7128906,3.0029297,6.7148438,6.7109375,6.7148438
			C209.809082,357.5488281,212.8139648,354.5458984,212.8139648,350.8330078z"/>
		<path class="st1" d="M234.4360352,378.8046875v-78.2949219c0-3.7070313-3.0019531-6.7109375-6.7109375-6.7109375
			c-3.7060547,0-6.7099609,3.0039063-6.7099609,6.7109375v78.2949219c0,3.6992188,3.0048828,6.7089844,6.7099609,6.7089844
			C231.4331055,385.5136719,234.4360352,382.5039063,234.4360352,378.8046875z"/>
		<path class="st1" d="M256.0610352,367.2402344v-43.2480469c0-3.7070313-3.0029297-6.7109375-6.7109375-6.7109375
			c-3.7070313,0-6.7109375,3.0039063-6.7109375,6.7109375v43.2480469c0,3.7089844,3.0039063,6.7109375,6.7109375,6.7109375
			C253.0581055,373.9511719,256.0610352,370.9492188,256.0610352,367.2402344z"/>
		<path class="st1" d="M314.9638672,330.7060547c-3.7070313,0-6.7109375,3.0087891-6.7109375,6.7128906v37.2851563
			c0,3.7070313,3.0039063,6.7138672,6.7109375,6.7138672c3.7060547,0,6.7109375-3.0068359,6.7109375-6.7138672v-37.2851563
			C321.6748047,333.7148438,318.6699219,330.7060547,314.9638672,330.7060547z"/>
		<path class="st1" d="M293.3417969,283.7304688c-3.7070313,0-6.7119141,3.0058594-6.7119141,6.7128906v101.7792969
			c0,3.7070313,3.0048828,6.7080078,6.7119141,6.7080078c3.7080078,0,6.7128906-3.0009766,6.7128906-6.7080078V290.4433594
			C300.0546875,286.7363281,297.046875,283.7304688,293.3417969,283.7304688z"/>
		<path class="st1" d="M271.7207031,381.4160156c3.7050781,0,6.7089844-3.0068359,6.7089844-6.7138672v-64.6884766
			c0-3.7070313-3.0039063-6.7109375-6.7089844-6.7109375c-3.7070313,0-6.7128906,3.0039063-6.7128906,6.7109375v64.6884766
			C265.0078125,378.4091797,268.0136719,381.4160156,271.7207031,381.4160156z"/>
	</g>
</g>
</svg>
