<?xml version="1.0" encoding="utf-8"?>

<!DOCTYPE svg PUBLIC "-//W3C//DTD SVG 1.1//EN" "http://www.w3.org/Graphics/SVG/1.1/DTD/svg11.dtd">
<svg version="1.1" id="Layer_1" xmlns="http://www.w3.org/2000/svg" 
	  viewBox="0 0 512 512">
<style type="text/css">
<![CDATA[
	.st0{fill:#607D8B;}
	.st1{fill:#FFFFFF;}
]]>
</style>
<rect id="book_bg" class="st0" width="512" height="512"/>
<g id="book">
	<g>
		<path class="st1" d="M439.1191406,146.0170898v-25.203125l-3.6611328-1.4130859
			c-1.2421875-0.5039063-30.8486328-11.9790039-70.3349609-11.9790039c-42.2763672,0-78.7734375,12.9033203-108.3847656,38.3012695
			c-29.6723633-25.3969727-66.1113281-38.3012695-108.4462891-38.3012695
			c-39.4760742,0-69.0991211,11.4770508-70.3339844,11.9790039l-3.5932617,1.4130859v23.3481445
			c-11.9887695,2.2441406-19.4379883,6.2788086-19.4379883,12.7880859v240.4931641h177.1132813
			c6.1308594,5.5214844,15.1459961,8.9375,25.1396484,8.9375c9.9892578,0,18.9902344-3.4150391,25.0712891-8.9375h172.6992188
			V156.9511719C454.9501953,151.6118164,448.9277344,148.1347656,439.1191406,146.0170898L439.1191406,146.0170898z
			 M254.8129883,378.5087891c-14.71875-6.0839844-65.3647461-25.3271484-116.0898438-25.3271484
			c-20.0371094,0-37.7890625,3.0429688-52.953125,9.125V128.7607422c8.8847656-2.9018555,32.9160156-9.8618164,62.5209961-9.8618164
			c38.9829102,0,72.4501953,11.7861328,99.7490234,34.7011719v139.4291992l6.7719727-7.4482422L254.8129883,378.5087891
			L254.8129883,378.5087891z M427.6347656,362.3701172c-16.2626953-6.5185547-34.8867188-9.8076172-55.5576172-9.8076172
			c-50.7177734,0-98.9492188,19.4287109-113.421875,25.8203125v-92.8085938l6.7109375,7.4453125V153.5981445
			c27.3134766-22.9130859,60.7705078-34.7001953,99.7568359-34.7001953c29.546875,0,53.6982422,6.9599609,62.5117188,9.8608398
			V362.3701172L427.6347656,362.3701172z"/>
	</g>
</g>
</svg>
