<?xml version="1.0" encoding="utf-8"?>
<!DOCTYPE svg PUBLIC "-//W3C//DTD SVG 1.1//EN" "http://www.w3.org/Graphics/SVG/1.1/DTD/svg11.dtd">
<svg version="1.1" id="games" xmlns="http://www.w3.org/2000/svg" viewBox="0 0 512 512">
<style type="text/css">
<![CDATA[
	.st0{fill:url(#SVGID_1_);}
	.st1{fill:#FFFFFF;}
]]>
</style>
<linearGradient id="SVGID_1_" gradientUnits="userSpaceOnUse" x1="255.9995117" y1="0" x2="255.9994965" y2="512.0004883">
	<stop  offset="0" style="stop-color:#F4B113"/>
	<stop  offset="0.1749831" style="stop-color:#EBAB15"/>
	<stop  offset="0.4659598" style="stop-color:#D19A19"/>
	<stop  offset="0.8347928" style="stop-color:#A88020"/>
	<stop  offset="0.994382" style="stop-color:#947323"/>
</linearGradient>
<rect class="st0" width="512" height="512"/>
<g id="Layer_3_copy_7">
	<g>
		<path class="st1" d="M145.956543,226.6362305v69.9516602h-45.7373047V93.5307617h71.6503906
			c51.1645508,0,76.7480469,21.5722656,76.7480469,64.7119141c0,20.390625-7.3413086,36.887207-22.019043,49.4897461
			c-14.6801758,12.6025391-34.2919922,18.9038086-58.8354492,18.9038086H145.956543z M145.956543,128.6479492v63.2958984h17.9833984
			c24.3554688,0,36.5332031-10.6665039,36.5332031-32.0019531c0-20.8618164-12.1777344-31.2939453-36.5332031-31.2939453H145.956543
			z"/>
		<path class="st1" d="M423.9199219,289.3652344c-14.8203125,7.1757813-34.1738281,10.7617188-58.0566406,10.7617188
			c-31.1523438,0-55.6484375-9.1542969-73.4902344-27.4707031c-17.8417969-18.3125-26.7636719-42.7143555-26.7636719-73.2075195
			c0-32.4731445,10.0292969-58.8110352,30.0898438-79.0136719c20.0605469-20.2001953,46.0917969-30.3027344,78.09375-30.3027344
			c19.8242188,0,36.5332031,2.5024414,50.1269531,7.5048828v44.0380859
			c-13.59375-8.1176758-29.0761719-12.1777344-46.4453125-12.1777344c-19.0683594,0-34.4570313,5.9960938-46.1621094,17.9833984
			c-11.7050781,11.9897461-17.5585938,28.2275391-17.5585938,48.7109375c0,19.6362305,5.5234375,35.2832031,16.5683594,46.940918
			c11.0449219,11.6601563,25.9121094,17.4882813,44.6035156,17.4882813c17.8417969,0,34.1738281-4.3413086,48.9941406-13.027832
			V289.3652344z"/>
		<path class="st1" d="M159.0263672,361.7890625c-0.9790039-0.6640625-2.1157227-1.3027344-3.4101563-1.9199219
			c-1.2949219-0.6152344-2.7080078-1.1523438-4.2392578-1.609375c-1.5317383-0.4570313-3.1577148-0.828125-4.8779297-1.1132813
			c-1.7216797-0.2832031-3.4975586-0.4257813-5.3286133-0.4257813c-3.9472656,0-7.5073242,0.6386719-10.6801758,1.9179688
			c-3.1738281,1.2792969-5.8730469,3.078125-8.0996094,5.3984375c-2.2255859,2.3222656-3.9306641,5.1152344-5.1152344,8.3847656
			c-1.1835938,3.2675781-1.7758789,6.890625-1.7758789,10.8691406c0,2.8730469,0.3945313,5.4472656,1.184082,7.7207031
			c0.7890625,2.2734375,1.9179688,4.1835938,3.3867188,5.7304688c1.4677734,1.546875,3.2441406,2.7324219,5.328125,3.5527344
			s4.4047852,1.2304688,6.9624023,1.2304688c1.7050781,0,3.1176758-0.1015625,4.2387695-0.3066406
			c1.1206055-0.2050781,2.1391602-0.4511719,3.0551758-0.734375l2.8891602-13.7832031h-13.7827148l2.6049805-12.21875h29.0336914
			l-7.2939453,34.4316406c-1.3579102,0.6640625-2.8417969,1.3027344-4.4521484,1.9179688
			c-1.6103516,0.6171875-3.362793,1.1777344-5.2573242,1.6816406c-1.8945313,0.5058594-3.9311523,0.9082031-6.1098633,1.2089844
			c-2.1787109,0.2988281-4.53125,0.4492188-7.0571289,0.4492188c-4.862793,0-9.2119141-0.7265625-13.0488281-2.1777344
			c-3.8359375-1.453125-7.0649414-3.5058594-9.6855469-6.1582031c-2.6210938-2.6523438-4.6259766-5.8339844-6.0151367-9.5429688
			c-1.3896484-3.7109375-2.0839844-7.8066406-2.0839844-12.2910156c0-3.5371094,0.3945313-6.9863281,1.184082-10.3496094
			c0.7890625-3.3632813,1.9658203-6.5273438,3.5283203-9.4960938c1.5634766-2.9667969,3.5205078-5.6914063,5.8730469-8.1699219
			c2.3520508-2.4785156,5.0991211-4.609375,8.2412109-6.3945313c3.1416016-1.7832031,6.6860352-3.1738281,10.6333008-4.1679688
			c3.9467773-0.9941406,8.2885742-1.4921875,13.0249023-1.4921875c2.1469727,0,4.1914063,0.1191406,6.1337891,0.3554688
			c1.9414063,0.2363281,3.7651367,0.5449219,5.4702148,0.9238281s3.2753906,0.796875,4.7124023,1.2558594
			c1.4365234,0.4570313,2.7236328,0.9082031,3.8603516,1.3496094L159.0263672,361.7890625z"/>
		<path class="st1" d="M209.5629883,412.9882813l-1.9418945-15.109375h-24.3447266l-7.9570313,15.109375h-17.2402344
			l39.1694336-67.9199219h18.2348633l9.7094727,67.9199219H209.5629883z M204.0214844,363.2089844
			c-0.0317383-0.5039063-0.0556641-1.0664063-0.0712891-1.6816406c-0.0161133-0.6152344-0.0161133-1.2070313,0-1.7753906
			c0.015625-0.5683594,0.0395508-1.0820313,0.0712891-1.5390625c0.03125-0.4589844,0.0629883-0.796875,0.0947266-1.0195313
			h-0.2841797c-0.0634766,0.2851563-0.1738281,0.6484375-0.331543,1.0898438
			c-0.1582031,0.4433594-0.3398438,0.9238281-0.5444336,1.4453125c-0.2060547,0.5195313-0.4428711,1.0644531-0.7109375,1.6328125
			c-0.2685547,0.5683594-0.5444336,1.1210938-0.8286133,1.6582031l-12.4091797,23.1132813h17.4770508L204.0214844,363.2089844z"/>
		<path class="st1" d="M302.3945313,412.9882813h-13.734375l8.6191406-40.6386719
			c0.9472656-4.3242188,2.1796875-9.171875,3.6953125-14.5390625h-0.3789063
			c-0.4433594,1.0097656-0.9082031,2.0195313-1.3974609,3.03125c-0.4902344,1.0097656-0.9716797,1.9648438-1.4443359,2.8652344
			c-0.4746094,0.8984375-0.9169922,1.7050781-1.3261719,2.4140625c-0.4111328,0.7109375-0.7744141,1.2871094-1.0898438,1.7304688
			l-18.1875,24.7695313h-10.7041016l-7.0576172-24.296875c-0.1582031-0.4726563-0.3076172-1.2226563-0.4492188-2.25
			c-0.1425781-1.0253906-0.2128906-2.0917969-0.2128906-3.1972656v-5.0664063h-0.4267578
			c-0.4423828,2.9667969-0.8759766,5.6992188-1.3027344,8.1933594c-0.4257813,2.4941406-0.8129883,4.59375-1.1601563,6.2988281
			l-8.6674805,40.6855469h-13.7827148l14.4458008-67.9199219h18.1870117l6.9628906,23.5878906
			c0.2207031,0.7578125,0.4257813,1.5703125,0.6152344,2.4394531c0.1894531,0.8671875,0.3476563,1.7363281,0.4746094,2.6035156
			c0.125,0.8691406,0.2197266,1.7050781,0.2832031,2.5117188c0.0634766,0.8046875,0.0957031,1.5234375,0.0957031,2.1542969H274.6875
			c0.3466797-0.6933594,0.7177734-1.4765625,1.1132813-2.34375c0.3945313-0.8691406,0.8046875-1.7539063,1.2314453-2.6523438
			c0.4257813-0.9003906,0.8759766-1.7695313,1.3496094-2.6054688s0.9472656-1.5703125,1.4208984-2.203125l17.3349609-23.4921875
			h19.703125L302.3945313,412.9882813z"/>
		<path class="st1" d="M368.703125,357.5253906h-23.7285156l-3.2207031,15.2988281h22.1181641l-2.7001953,12.5039063h-22.0234375
			l-3.3154297,15.25h25.3388672l-2.6523438,12.4101563h-40.7324219l14.4462891-67.9199219h39.1220703L368.703125,357.5253906z"/>
		<path class="st1" d="M417.3935547,360.7929688c-0.9794922-0.5996094-2.0605469-1.1914063-3.2451172-1.7753906
			c-1.1835938-0.5839844-2.4472656-1.0976563-3.7890625-1.5390625s-2.7548828-0.8046875-4.2392578-1.0898438
			c-1.484375-0.2832031-3.03125-0.4257813-4.640625-0.4257813c-1.8007813,0-3.3164063,0.2441406-4.546875,0.734375
			c-1.2324219,0.4882813-2.2109375,1.0976563-2.9375,1.8222656c-0.7265625,0.7265625-1.2470703,1.5078125-1.5625,2.3457031
			c-0.3164063,0.8359375-0.4736328,1.6171875-0.4736328,2.34375c0,1.0429688,0.1660156,1.9980469,0.4970703,2.8652344
			c0.3320313,0.8691406,0.8525391,1.7050781,1.5634766,2.5097656c0.7099609,0.8066406,1.6416016,1.6269531,2.7939453,2.4628906
			c1.1523438,0.8378906,2.5498047,1.7617188,4.1914063,2.7714844c2.1474609,1.3261719,4.0498047,2.6601563,5.7080078,4.0019531
			c1.6572266,1.3417969,3.0703125,2.7792969,4.2392578,4.3105469c1.1669922,1.53125,2.0517578,3.1972656,2.6523438,4.9960938
			c0.5986328,1.8007813,0.8994141,3.8222656,0.8994141,6.0625c0,1.2949219-0.1503906,2.7167969-0.4501953,4.2636719
			s-0.8134766,3.1015625-1.5390625,4.6640625c-0.7265625,1.5644531-1.7285156,3.0722656-3.0078125,4.5234375
			c-1.2783203,1.453125-2.8818359,2.7324219-4.8066406,3.8378906c-1.9267578,1.1054688-4.2392578,1.9960938-6.9394531,2.6757813
			c-2.6992188,0.6777344-5.8496094,1.0175781-9.4492188,1.0175781c-2.0205078,0-3.9863281-0.1347656-5.8964844-0.4023438
			c-1.9101563-0.2695313-3.7255859-0.6328125-5.4462891-1.0898438c-1.7216797-0.4570313-3.3242188-0.9707031-4.8076172-1.5390625
			c-1.484375-0.5683594-2.7949219-1.1523438-3.9316406-1.7519531l2.6054688-13.4511719
			c1.1679688,0.8515625,2.4394531,1.6582031,3.8125,2.4160156c1.3740234,0.7578125,2.8105469,1.4199219,4.3105469,1.9882813
			c1.4990234,0.5683594,3.0546875,1.0117188,4.6650391,1.3261719c1.6103516,0.3164063,3.2363281,0.4746094,4.8779297,0.4746094
			c1.8007813,0,3.3310547-0.1972656,4.5947266-0.59375c1.2626953-0.3945313,2.2890625-0.9375,3.0791016-1.6328125
			c0.7880859-0.6953125,1.3564453-1.5,1.7050781-2.4160156c0.3466797-0.9160156,0.5205078-1.8945313,0.5205078-2.9355469
			c0-1.0429688-0.1660156-1.9824219-0.4970703-2.8183594c-0.3320313-0.8378906-0.8769531-1.6425781-1.6347656-2.4160156
			s-1.7597656-1.578125-3.0068359-2.4160156c-1.2480469-0.8359375-2.7705078-1.7753906-4.5712891-2.8183594
			c-1.9257813-1.0722656-3.6787109-2.2324219-5.2568359-3.4804688c-1.5791016-1.2480469-2.9365234-2.6367188-4.0732422-4.1679688
			s-2.0214844-3.2363281-2.6523438-5.1152344c-0.6318359-1.8789063-0.9472656-3.9707031-0.9472656-6.2753906
			c0-2.6210938,0.4892578-5.1933594,1.46875-7.7207031c0.9775391-2.5253906,2.5097656-4.7832031,4.59375-6.7734375
			c2.0839844-1.9882813,4.7441406-3.5917969,7.9804688-4.8066406s7.0966797-1.8242188,11.5800781-1.8242188
			c1.8632813,0,3.6630859,0.1035156,5.4003906,0.3085938c1.7353516,0.2050781,3.3935547,0.4824219,4.9726563,0.828125
			c1.578125,0.3476563,3.0625,0.7421875,4.4521484,1.1855469c1.3886719,0.4414063,2.6523438,0.8984375,3.7890625,1.3730469
			L417.3935547,360.7929688z"/>
	</g>
</g>
<g>
</g>
<g>
</g>
<g>
</g>
<g>
</g>
<g>
</g>
<g>
</g>
<g>
</g>
<g>
</g>
<g>
</g>
<g>
</g>
<g>
</g>
<g>
</g>
<g>
</g>
<g>
</g>
<g>
</g>
</svg>
