<?xml version="1.0" encoding="utf-8"?>

<!DOCTYPE svg PUBLIC "-//W3C//DTD SVG 1.1//EN" "http://www.w3.org/Graphics/SVG/1.1/DTD/svg11.dtd">
<svg version="1.1" id="Layer_1" xmlns="http://www.w3.org/2000/svg" 
	  viewBox="0 0 512 512">
<style type="text/css">
<![CDATA[
	.st0{fill:#FFA726;}
	.st1{fill:#FFFFFF;}
]]>
</style>
<rect id="apps_bg_400" class="st0" width="512" height="512"/>
<g id="misc">
	<g>
		<path class="st1" d="M412.7548828,238.5620117c-0.5-4.4150391-5.6416016-7.7358398-10.0908203-7.7358398
			c-14.3916016,0-27.1601563-8.4433594-32.515625-21.512207c-5.4658203-13.3828125-1.9384766-28.9868164,8.7802734-38.8217773
			c3.3769531-3.0859375,3.7871094-8.2553711,0.953125-11.8422852c-7.3603516-9.3520508-15.7285156-17.7998047-24.8691406-25.1196289
			c-3.5722656-2.8691406-8.8300781-2.4702148-11.9335938,0.9648438
			c-9.3564453,10.3637695-26.1708984,14.2158203-39.1601563,8.7958984
			c-13.5146484-5.6870117-22.0429688-19.3837891-21.2050781-34.0869141c0.2734375-4.6210938-3.1044922-8.637207-7.7070313-9.1728516
			c-11.7294922-1.3583984-23.5605469-1.3974609-35.324707-0.0922852c-4.5458984,0.5019531-7.9243164,4.421875-7.7700195,8.9858398
			c0.5058594,14.5600586-8.1191406,28.0161133-21.5019531,33.4990234
			c-12.8349609,5.2431641-29.5292969,1.4199219-38.8671875-8.8540039c-3.0849609-3.3828125-8.25-3.7998047-11.8481445-0.9926758
			c-9.4077148,7.3828125-17.9648438,15.8369141-25.3989258,25.1118164c-2.8969727,3.605957-2.46875,8.8320313,0.9370117,11.9291992
			c10.9301758,9.8979492,14.4550781,25.6376953,8.7792969,39.1757813
			c-5.4204102,12.9091797-18.8203125,21.222168-34.1601563,21.222168c-4.9799805-0.1572266-8.5229492,3.1860352-9.0708008,7.7128906
			c-1.3823242,11.7910156-1.3974609,23.8129883-0.0693359,35.7006836c0.4970703,4.4355469,5.796875,7.7246094,10.2983398,7.7246094
			c13.6738281-0.3496094,26.7949219,8.1113281,32.3056641,21.5136719
			c5.4882813,13.3837891,1.9570313,28.9785156-8.7797852,38.828125c-3.3598633,3.0830078-3.7880859,8.2431641-0.9521484,11.8242188
			c7.2900391,9.2910156,15.6650391,17.7460938,24.8330078,25.1328125c3.5981445,2.8964844,8.8300781,2.4902344,11.9511719-0.9472656
			c9.3959961-10.3867188,26.203125-14.2285156,39.1411133-8.8007813
			c13.5537109,5.6728516,22.0776367,19.3710938,21.2446289,34.0751953
			c-0.2749023,4.6201172,3.1152344,8.6455078,7.7011719,9.1728516c6.0019531,0.7001953,12.0371094,1.0498047,18.0917969,1.0498047
			c5.7441406,0,11.4882813-0.3125,17.234375-0.9501953c4.5527344-0.5048828,7.9238281-4.4267578,7.7714844-8.9882813
			c-0.5244141-14.5556641,8.1152344-28.0136719,21.4814453-33.4804688
			c12.9208984-5.2753906,29.5390625-1.4169922,38.8837891,8.8457031c3.1044922,3.3769531,8.2324219,3.7880859,11.8457031,0.9921875
			c9.3964844-7.3632813,17.9335938-15.8125,25.4023438-25.109375c2.8964844-3.6025391,2.4863281-8.8320313-0.9375-11.9355469
			c-10.9296875-9.8925781-14.4775391-25.6386719-8.7929688-39.1630859
			c5.3251953-12.7333984,18.2304688-21.2841797,32.1142578-21.2841797l1.9384766,0.0527344
			c4.5068359,0.3652344,8.6513672-3.1035156,9.1875-7.6962891
			C414.0732422,262.4589844,414.0908203,250.4501953,412.7548828,238.5620117L412.7548828,238.5620117z M256.984375,308.6953125
			c-28.8793945,0-52.3652344-23.4921875-52.3652344-52.3662109c0-28.8769531,23.4858398-52.3701172,52.3652344-52.3701172
			c28.8828125,0,52.3662109,23.4931641,52.3662109,52.3701172
			C309.3564453,285.203125,285.8710938,308.6953125,256.984375,308.6953125L256.984375,308.6953125z"/>
	</g>
</g>
</svg>
