<?xml version="1.0" encoding="utf-8"?>
<!DOCTYPE svg PUBLIC "-//W3C//DTD SVG 1.1//EN" "http://www.w3.org/Graphics/SVG/1.1/DTD/svg11.dtd">
<svg version="1.1" id="Layer_1" xmlns="http://www.w3.org/2000/svg" viewBox="0 0 512 512" >
<style type="text/css">
<![CDATA[
	.st0{fill:#F48FB1;}
	.st1{fill:#FFFFFF;stroke:#FFFFFF;stroke-width:0;stroke-linecap:square;stroke-miterlimit:10;}
	.st2{fill:#FFFFFF;stroke:#FFFFFF;}
	.st3{fill-rule:evenodd;clip-rule:evenodd;fill:#F48FB1;}
	.st4{fill-rule:evenodd;clip-rule:evenodd;fill:#FFFFFF;}
]]>
</style>
<rect id="" class="st0" width="512" height="512"/>
<g id="playboy">
	<polygon class="st2" points="230.8388672,459.6474609 262.8076172,485.6640625 270.7998047,427.6259766 231.8378906,447.6396484 
		196.8720703,424.6240234 196.8720703,473.65625 	"/>
	<polygon class="st1" points="230.8388672,459.6474609 262.8076172,485.6640625 270.7998047,427.6259766 231.8378906,447.6396484 
		196.8720703,424.6240234 196.8720703,473.65625 	"/>
	<polygon class="st4" points="277.7919922,445.6376953 275.7939453,459.6474609 357.7138672,435.6308594 358.7128906,422.6220703 	
		"/>
	<polygon class="st2" points="277.7919922,445.6376953 275.7939453,459.6474609 357.7138672,435.6308594 358.7128906,422.6220703 	
		"/>
	<path class="st1" d="M230.8388672,438.6328125c-0.9990234,2.0009766-14.9853516-21.0136719,0-43.0283203
		c0,0-76.9243164-19.0117188-79.9213867-63.0410156c0,0-9.9902344-84.0546875,123.878418-101.0664063
		C83.9833984,164.453125,98.96875,24.3613281,98.96875,33.3671875
		c90.9101563,38.0249023,150.8515625,111.0732422,211.7919922,196.1289063
		c6.9921875,2.0009766-34.9667969-114.0751953,94.90625-212.1391602
		c-1.9980469,55.0361328,6.9921875,79.0517578-16.9833984,159.1040039
		c-21.9785156,58.0380859-44.9560547,70.0458984-44.9560547,72.0478516
		c46.9541016,34.0214844,24.9755859,115.0751953,14.9853516,160.1044922l-79.9208984,26.0166016l3.9960938-23.0146484
		C267.8017578,419.6201172,243.8261719,431.6279297,230.8388672,438.6328125L230.8388672,438.6328125z"/>
	<path class="st3" d="M219.8496094,271.5234375c9.9902344,0,18.9814453,9.0058594,18.9814453,19.0126953
		c0,10.0058594-8.9912109,18.0117188-18.9814453,18.0117188s-17.9824219-8.0058594-17.9824219-18.0117188
		C201.8671875,280.5292969,209.859375,271.5234375,219.8496094,271.5234375L219.8496094,271.5234375z"/>
</g>
</svg>
