<?xml version="1.0" encoding="utf-8"?>
<!-- Generator: Adobe Illustrator 16.0.2, SVG Export Plug-In . SVG Version: 6.00 Build 0)  -->
<!DOCTYPE svg PUBLIC "-//W3C//DTD SVG 1.1//EN" "http://www.w3.org/Graphics/SVG/1.1/DTD/svg11.dtd">
<svg version="1.1" id="win_apps_copy" xmlns="http://www.w3.org/2000/svg" viewBox="0 0 512 512">
<style type="text/css">
<![CDATA[
	.st0{fill:url(#SVGID_1_);}
	.st1{fill:#FFFFFF;}
]]>
</style>
<linearGradient id="SVGID_1_" gradientUnits="userSpaceOnUse" x1="255.9995117" y1="0" x2="255.9994965" y2="512.0004883">
	<stop  offset="0" style="stop-color:#F21E2A"/>
	<stop  offset="0.1778268" style="stop-color:#E91F2A"/>
	<stop  offset="0.4734032" style="stop-color:#CF232C"/>
	<stop  offset="0.8481088" style="stop-color:#A6292E"/>
	<stop  offset="0.994382" style="stop-color:#942C2F"/>
</linearGradient>
<rect class="st0" width="512" height="512"/>
<g id="XMLID_2_">
	<g>
		<path id="XMLID_12_" class="st1" d="M160.7539063,467.4462891c-2.0166016-0.5556641-4.0087891-2.0986328-4.7880859-3.7060547
			c-0.9736328-2.0126953-0.9042969-4.8564453,0.1738281-7.0195313c0.6923828-1.3916016,1.7324219-2.5615234,8.1464844-9.1621094
			c2.8164063-2.8984375,5.9873047-6.1972656,7.0449219-7.3310547c1.0585938-1.1337891,3.6152344-3.7060547,5.6826172-5.7167969
			l3.7578125-3.65625l-2.6601563-2.6972656c-1.4638672-1.4824219-2.9794922-3.0703125-3.3691406-3.5283203
			s-2.8388672-2.9960938-5.4433594-5.6396484c-5.1279297-5.2089844-10.1533203-10.6464844-11.4111328-12.3486328
			c-1.7216797-2.3291016-2.1298828-4.9521484-1.1005859-7.0693359c1.0517578-2.1630859,3.7705078-4.2070313,5.9296875-4.4589844
			c1.0332031-0.1210938,2.671875,0.2402344,4.2392578,0.9335938c1.1464844,0.5068359,4.1699219,3.2128906,6.5488281,5.8623047
			c1.5546875,1.7314453,6.0507813,6.5029297,13.6152344,14.4521484l3.6943359,3.8808594l4.1474609-4.2324219
			c2.28125-2.3271484,5.1064453-5.2714844,6.2783203-6.5429688c1.1728516-1.2714844,4.4130859-4.6621094,7.203125-7.5351563
			c4.6533203-4.7929688,5.1816406-5.2783203,6.4140625-5.8867188c3.7666016-1.8623047,8.1699219-0.3867188,10.0058594,3.3535156
			c0.4804688,0.9785156,0.5380859,1.2832031,0.5263672,2.7636719c-0.0166016,1.8984375-0.4238281,3.1816406-1.421875,4.4726563
			c-1.4511719,1.8769531-4.2246094,4.9101563-8.3134766,9.0878906c-2.4208984,2.4746094-5.3505859,5.5546875-6.5097656,6.8417969
			c-1.1591797,1.2890625-3.4433594,3.6699219-5.0761719,5.2929688l-2.9697266,2.9501953l5.8652344,5.9833984
			c3.2255859,3.2910156,8.4941406,8.6621094,11.7080078,11.9355469c6.1191406,6.234375,6.7861328,7.0615234,7.5664063,9.3740234
			c0.8515625,2.5224609,0.1767578,5.2333984-1.8535156,7.4550781c-1.7587891,1.9248047-4.640625,2.6396484-7.3378906,1.8212891
			c-1.5722656-0.4785156-2.5390625-1.1552734-4.2177734-2.9550781c-3.2011719-3.4316406-10.421875-10.9228516-13.0449219-13.5332031
			c-1.5839844-1.5761719-3.3183594-3.4072266-3.8535156-4.0683594c-0.5361328-0.6611328-1.8574219-2.0917969-2.9355469-3.1806641
			l-1.9609375-1.9785156l-1.3066406,1.2099609c-0.7197266,0.6660156-2.7636719,2.7382813-4.5439453,4.6054688
			c-1.7802734,1.8681641-5.1083984,5.3564453-7.3964844,7.7519531s-5.3935547,5.6650391-6.9013672,7.265625
			c-2.9130859,3.0947266-4.5126953,4.359375-6.203125,4.9033203
			C163.5371094,467.7636719,161.9775391,467.7841797,160.7539063,467.4462891z"/>
		<path id="XMLID_9_" class="st1" d="M353.2158203,450.1259766c-2.5390625-0.3027344-7.0400391-1.5595703-9.0810547-2.5361328
			c-8.0986328-3.8759766-13.53125-10.7333984-15.2724609-19.2802734c-0.4765625-2.3349609-0.5175781-7.8339844-0.0761719-10.1787109
			c0.3916016-2.0771484,1.8203125-6.4384766,2.6015625-7.9384766c0.3476563-0.6679688,1.6640625-2.5126953,2.9248047-4.0976563
			c2.3720703-2.9824219,4.0761719-4.6142578,6.4716797-6.1982422c1.65625-1.0947266,6.0664063-3.0537109,7.9746094-3.5400391
			c1.9755859-0.5048828,5.2070313-0.7998047,8.1210938-0.7412109c1.3222656,0.0263672,5.2548828,0.0332031,8.7382813,0.0146484
			l6.3330078-0.0332031l0.0019531-8.6445313c0-5.0634766,0.0810547-9.1435547,0.1923828-9.8476563
			c0.9599609-6.0205078,7.3144531-8.3925781,11.7470703-4.3847656c1.0517578,0.9511719,1.9912109,2.5566406,2.2988281,3.9296875
			c0.2314453,1.0292969,0.3125,10.2744141,0.3916016,44.3886719l0.0507813,22.0195313l-0.5009766,1.0244141
			c-0.5810547,1.1875-1.3251953,1.7724609-3.2529297,2.5576172c-2.3232422,0.9453125-7.2167969,2.1875-11.3916016,2.8916016
			l-4.0673828,0.6875l-6.3798828,0.0400391C357.5322266,450.2802734,354.0107422,450.2207031,353.2158203,450.1259766z
			 M368.5605469,435.9091797h3.2060547v-13.2333984v-13.2333984l-8.6455078,0.0683594
			c-9.7441406,0.0761719-9.5908203,0.0576172-12.5283203,1.5244141c-2.0869141,1.0419922-3.3603516,2.0810547-4.6484375,3.7939453
			c-1.9980469,2.65625-2.7451172,4.7226563-2.7392578,7.5810547c0.0058594,3.6162109,1.2382813,6.9111328,3.3720703,9.0126953
			c2.4755859,2.4394531,3.8789063,3.2353516,7.2958984,4.1347656l2.0830078,0.5488281l4.6992188-0.0986328
			C363.2392578,435.953125,366.796875,435.9091797,368.5605469,435.9091797z"/>
		<path id="XMLID_8_" class="st1" d="M263.5839844,448.4746094c-0.5566406-0.7167969-1.2802734-1.6523438-1.6074219-2.0800781
			c-0.8408203-1.0996094-4.6669922-6.3300781-6.3164063-8.6367188c-1.7675781-2.4716797-3.5097656-4.8681641-6.9902344-9.6152344
			c-1.5283203-2.0849609-3.7324219-5.1640625-4.8984375-6.8427734c-2.5957031-3.7382813-4.9619141-6.9775391-6.6181641-9.0605469
			c-1.7509766-2.203125-4.1455078-5.8798828-4.6582031-7.1552734c-0.3466797-0.8613281-0.4326172-1.4208984-0.4335938-2.8300781
			c-0.0009766-1.5400391,0.0625-1.8935547,0.5175781-2.8662109c0.6386719-1.3652344,1.9726563-2.6582031,3.5322266-3.4257813
			c2.3115234-1.1386719,5.1806641-0.8613281,7.2246094,0.6972656c1.1679688,0.8916016,2.9404297,3.0029297,4.2011719,5.0048828
			c1.4257813,2.2626953,2.7324219,4.2128906,7.9541016,11.8701172c5.1699219,7.5820313,6.25,9.1357422,6.6630859,9.5859375
			c0.2480469,0.2705078,0.8515625,1.0332031,1.3427734,1.6933594c0.4902344,0.6611328,0.9501953,1.2695313,1.0205078,1.3515625
			c0.1103516,0.1279297,1.5400391-1.6835938,2.1230469-2.6875c0.1015625-0.1748047,1.0585938-1.5322266,2.1259766-3.015625
			c2.6142578-3.6308594,5.7832031-8.09375,6.0097656-8.4648438c0.1914063-0.3115234,0.2958984-0.4648438,3.6357422-5.3261719
			c1.0908203-1.5878906,2.4345703-3.6396484,2.9863281-4.5595703c1.3896484-2.3173828,3.6396484-5.0615234,4.7119141-5.7509766
			c1.9316406-1.2392578,4.0332031-1.4941406,6.3603516-0.7705078c1.9091797,0.5927734,3.7421875,2.2587891,4.4189453,4.0146484
			c0.7021484,1.8251953,0.5136719,4.2060547-0.4892578,6.1855469c-0.8447266,1.6689453-4.9951172,7.5498047-9.3369141,13.2324219
			c-1.0742188,1.40625-2.8564453,3.8867188-3.9628906,5.5136719c-1.1054688,1.6269531-2.4423828,3.5-2.9707031,4.1611328
			c-0.5292969,0.6611328-1.5341797,2.0087891-2.2333984,2.9951172
			c-2.1621094,3.0527344-13.1933594,18.0859375-13.2714844,18.0859375
			C264.609375,449.7773438,264.140625,449.1914063,263.5839844,448.4746094z"/>
		<path id="XMLID_7_" class="st1" d="M309.8789063,449.5849609c-1.9707031-0.3896484-4.0439453-1.8535156-4.9296875-3.4814453
			c-1.078125-1.9814453-1.0810547-2.0263672-1.015625-20.3652344c0.078125-22.0244141,0.1533203-24.9169922,0.6835938-26.2841797
			c0.5273438-1.3574219,1.8046875-2.5585938,3.6630859-3.4414063c1.1708984-0.5546875,1.6699219-0.6835938,2.9091797-0.7480469
			c1.2822266-0.0683594,1.6582031-0.0126953,2.6367188,0.3847656c2.5136719,1.0224609,3.6328125,2.2734375,4.3476563,4.8632813
			c0.4003906,1.4492188,0.4052734,1.6601563,0.5205078,21.0654297c0.0644531,10.7802734,0.0507813,20.1113281-0.0292969,20.7353516
			c-0.2441406,1.8789063-0.9960938,3.9716797-1.7402344,4.8398438
			C315.1630859,449.2128906,312.5527344,450.1132813,309.8789063,449.5849609z"/>
	</g>
	<g>
		<path id="XMLID_6_" class="st1" d="M135.2636719,344.703125c-0.9140625-0.2890625-3.0273438-1.34375-4.6953125-2.3476563
			c-7.265625-4.3613281-9.3652344-14.1640625-6.390625-29.8359375c1.5683594-8.2617188,6.328125-20.5039063,11.7558594-30.234375
			c5.7773438-10.3554688,7.2890625-12.7519531,10.1347656-16.0859375c1.5644531-1.8320313,4.0175781-5.2578125,5.4511719-7.6171875
			c3.9257813-6.4628906,13.4609375-18.2226563,20.6289063-25.4472656c5.3808594-5.4257813,7.0585938-6.7617188,10.6601563-8.4863281
			c7.2070313-3.4550781,13.5371094-5.3886719,18.7480469-5.7167969c4.2675781-0.2695313,5.2128906-0.1308594,9.9667969,1.4648438
			c7.5742188,2.5371094,13.296875,5.3652344,20.6054688,10.1660156c7.3027344,4.8046875,11.0820313,8.6074219,13.6601563,13.7578125
			c3.5800781,7.1367188,4.2617188,12.8359375,2.3027344,19.1875c-2.6660156,8.6386719-4.0546875,10.5488281-17.6152344,24.25
			c-13.1679688,13.3046875-25.9375,24.4960938-33.5546875,29.4121094c-2.484375,1.6035156-6.3105469,4.2714844-8.5019531,5.9296875
			C178.9902344,330.234375,160.6445313,340.28125,151.6289063,343.25
			C146.5058594,344.9375,138.3125,345.6640625,135.2636719,344.703125z"/>
		<path id="XMLID_5_" class="st1" d="M380.7460938,344.1367188c-3.8320313-1.0332031-7.8398438-2.7539063-20.5273438-8.7929688
			c-4.75-2.265625-20.3242188-11.8808594-27.4804688-16.96875c-2.125-1.5117188-5.2382813-4.0273438-6.9140625-5.5898438
			c-1.6796875-1.5625-4.5507813-3.9824219-6.3789063-5.3769531c-1.8320313-1.3945313-4.078125-3.3378906-4.9921875-4.3125
			c-0.9179688-0.9785156-4.1601563-3.8378906-7.2148438-6.3574219
			c-10.1953125-8.4179688-23.4648438-23.1269531-26.3007813-29.1503906c-1.3007813-2.7636719-1.4375-3.6855469-1.4179688-9.7089844
			c0.0234375-10.4472656,2.0195313-14.828125,10.4101563-22.8164063c3.5820313-3.4101563,6.1015625-5.1796875,11.5039063-8.0917969
			c7.671875-4.1308594,10.09375-5.1035156,15.7890625-6.3222656c8.3554688-1.7871094,18.8398438-0.6328125,26.0742188,2.8710938
			c4.4414063,2.1503906,13.5898438,10.2304688,21.9492188,19.3828125c6.1953125,6.78125,20.25,25.46875,23.9960938,31.8984375
			c4.828125,8.2851563,11.7773438,22.9453125,13.8398438,29.1835938c2.7070313,8.1933594,3.3554688,12.0390625,3.4101563,20.1875
			c0.046875,6.7558594,0,7.0371094-1.8125,10.9042969c-1.0234375,2.1816406-2.6484375,4.7285156-3.609375,5.6582031
			C396.7773438,344.8945313,388.6015625,346.2617188,380.7460938,344.1367188z"/>
		<path id="XMLID_4_" class="st1" d="M194.6230469,189.3476563c-4.8203125-0.9804688-13.6582031-5.7714844-19.4863281-10.5605469
			c-3.9921875-3.28125-12.3496094-12.9902344-19.0117188-22.0839844c-2.3203125-3.1660156-6.0898438-8.2851563-8.3789063-11.3769531
			s-4.6445313-6.7402344-5.2324219-8.1113281c-0.5917969-1.3710938-2.5097656-5.1152344-4.2636719-8.3183594
			c-3.8105469-6.953125-11.1015625-25.1699219-12.8144531-32.0078125
			c-1.7695313-7.0761719-1.7636719-16.5449219,0.015625-20.4160156c2.3183594-5.046875,6.1230469-7.8203125,12.5527344-9.1484375
			c4.3027344-0.890625,6.7421875-0.5058594,16.0820313,2.53125c8.8496094,2.875,14.8574219,5.7382813,20.84375,9.9316406
			c2.2890625,1.6035156,6.0332031,3.9707031,8.3203125,5.2597656c2.2890625,1.2890625,5.7832031,3.6523438,7.7675781,5.2539063
			C193,91.9003906,195.6210938,93.8398438,196.84375,94.609375c1.21875,0.7714844,4.0019531,2.8710938,6.1816406,4.6699219
			c2.1835938,1.796875,6.0527344,4.7636719,8.5996094,6.59375c2.6914063,1.9316406,10.0449219,8.7148438,17.5429688,16.1777344
			c11.8945313,11.8359375,13.0585938,13.1679688,14.7871094,16.921875c2.7597656,5.9785156,3.8203125,10.15625,3.8769531,15.2226563
			c0.046875,4.3457031-0.0507813,4.6894531-2.828125,10.2636719c-3.3789063,6.7851563-5.1757813,8.7753906-13.2207031,14.6367188
			c-9.0898438,6.625-13.6464844,8.78125-21.5898438,10.2285156
			C206.4414063,190.0039063,197.9199219,190.0195313,194.6230469,189.3476563z"/>
		<path id="XMLID_3_" class="st1" d="M319.9609375,189.3769531c-10.2539063-1.453125-22.6171875-7.9433594-30.65625-16.0996094
			c-7.0117188-7.109375-9.3203125-12.9179688-8.8242188-22.1894531c0.4003906-7.4824219,1.6484375-9.9902344,9.8007813-19.6933594
			c6.6328125-7.9023438,12.421875-13.4394531,21.6757813-20.7363281c4.7265625-3.7324219,10.59375-8.4726563,13.0351563-10.5371094
			c6.2695313-5.3046875,17.515625-13.6640625,22.7460938-16.9082031c2.4375-1.515625,6.1835938-3.9316406,8.3203125-5.3691406
			c2.1328125-1.4375,6.0078125-3.3789063,8.5976563-4.3125c2.59375-0.9335938,7.0429688-2.6015625,9.890625-3.7050781
			c6.7421875-2.6152344,12.5429688-3.4785156,17.8398438-2.6582031c5.4140625,0.8359375,7.8046875,2.5585938,10.1367188,7.2851563
			c1.640625,3.328125,1.8164063,4.1953125,1.9882813,9.7597656c0.1914063,6.0136719-0.5585938,14.5410156-1.6601563,18.8886719
			c-0.3046875,1.2207031-1.9375,4.9648438-3.6328125,8.3203125c-1.6914063,3.3554688-3.890625,8.0996094-4.8867188,10.5410156
			c-0.9882813,2.4414063-3.1445313,6.7363281-4.7851563,9.546875c-1.6367188,2.8105469-3.8515625,6.6582031-4.9179688,8.5546875
			c-2.171875,3.8535156-8.078125,12.3476563-10.9453125,15.7382813C362.421875,169.125,351.1953125,180.5742188,346.1523438,183.875
			c-5.5507813,3.6367188-11.4492188,5.5820313-17.5546875,5.7949219
			C325.6992188,189.7695313,321.8125,189.640625,319.9609375,189.3769531z"/>
	</g>
</g>
</svg>
