<?xml version="1.0" encoding="utf-8"?>
<!-- Generator: Adobe Illustrator 16.0.2, SVG Export Plug-In . SVG Version: 6.00 Build 0)  -->
<!DOCTYPE svg PUBLIC "-//W3C//DTD SVG 1.1//EN" "http://www.w3.org/Graphics/SVG/1.1/DTD/svg11.dtd">
<svg version="1.1" xmlns="http://www.w3.org/2000/svg" viewBox="0 0 512 512">
<style type="text/css">
<![CDATA[
	.st0{display:inline;fill:#4A148C;}
	.st1{display:inline;fill:url(#text3669_1_);}
	.st2{display:inline;fill:url(#text3678_1_);}
	.st3{display:inline;fill:#C62828;}
	.st4{display:inline;fill:#FFFFFF;}
	.st5{fill:url(#SVGID_4_);}
	.st6{fill:url(#SVGID_7_);}
	.st7{fill:url(#rect3663_1_);}
	.st8{font-size:144;}
	.st9{fill:#FFFFFF;}
	.st10{display:inline;fill:url(#text3682_1_);}
	.st11{display:inline;}
	.st12{display:inline;fill:#D32F2F;}
	.st13{display:none;}
	.st14{display:inline;fill:url(#SVGID_1_);}
	.st15{display:inline;fill:url(#SVGID_2_);}
	.st16{display:inline;fill:url(#SVGID_3_);}
	.st17{display:inline;fill:url(#SVGID_5_);}
	.st18{display:inline;fill:url(#SVGID_6_);}
	.st19{font-family:'SegoeUI-BoldItalic';}
]]>
</style>
<g id="sd_tv" class="st13">
	<linearGradient id="SVGID_1_" gradientUnits="userSpaceOnUse" x1="255.9995117" y1="0" x2="255.9994965" y2="512.0004883">
		<stop  offset="0" style="stop-color:#047FF1"/>
		<stop  offset="0.1764294" style="stop-color:#077BE8"/>
		<stop  offset="0.4696989" style="stop-color:#0E72CE"/>
		<stop  offset="0.841405" style="stop-color:#1A62A5"/>
		<stop  offset="0.994382" style="stop-color:#205B92"/>
	</linearGradient>
	<rect class="st14" width="512" height="512"/>
	<g id="Layer_3_copy" class="st11">
		<g class="st13">
			<path class="st4" d="M238.824707,145.6132813c-1.4536133-0.8896484-3.0585938-1.7685547-4.8164063-2.6367188
				c-1.7578125-0.8666992-3.6333008-1.6279297-5.625-2.2851563c-1.9931641-0.6557617-4.090332-1.1953125-6.2929688-1.6171875
				c-2.2041016-0.421875-4.5-0.6328125-6.890625-0.6328125c-2.671875,0-4.921875,0.3637695-6.75,1.0898438
				c-1.828125,0.7275391-3.2817383,1.6293945-4.359375,2.7070313c-1.0791016,1.0791016-1.8525391,2.2392578-2.3203125,3.4804688
				c-0.4692383,1.2426758-0.703125,2.402832-0.703125,3.4804688c0,1.546875,0.2460938,2.965332,0.7382813,4.2539063
				c0.4921875,1.2900391,1.265625,2.53125,2.3203125,3.7265625s2.4365234,2.4150391,4.1484375,3.65625
				c1.7104492,1.2426758,3.784668,2.6137695,6.2226563,4.1132813c3.1870117,1.96875,6.0117188,3.949707,8.4726563,5.9414063
				c2.4609375,1.9931641,4.5581055,4.1254883,6.2929688,6.3984375c1.7333984,2.2744141,3.0463867,4.7460938,3.9375,7.4179688
				c0.8896484,2.671875,1.3359375,5.6723633,1.3359375,9c0,1.9228516-0.2231445,4.0322266-0.6679688,6.328125
				c-0.4462891,2.2973633-1.2075195,4.6054688-2.2851563,6.9257813c-1.0791016,2.3203125-2.5664063,4.5595703-4.4648438,6.7148438
				c-1.8984375,2.1567383-4.2783203,4.0551758-7.1367188,5.6953125c-2.8598633,1.6416016-6.2929688,2.9648438-10.3007813,3.9726563
				s-8.6835938,1.5117188-14.0273438,1.5117188c-3.0004883,0-5.918457-0.2001953-8.7539063-0.5976563
				c-2.8369141-0.3984375-5.5317383-0.9384766-8.0859375-1.6171875c-2.5556641-0.6787109-4.934082-1.4414063-7.1367188-2.2851563
				c-2.2041016-0.84375-4.1484375-1.7104492-5.8359375-2.6015625l3.8671875-19.96875
				c1.7333984,1.265625,3.6210938,2.4609375,5.6601563,3.5859375s4.1713867,2.109375,6.3984375,2.953125
				c2.2255859,0.84375,4.5351563,1.5009766,6.9257813,1.96875c2.390625,0.4692383,4.8041992,0.703125,7.2421875,0.703125
				c2.671875,0,4.9448242-0.2919922,6.8203125-0.8789063c1.8740234-0.5854492,3.3979492-1.394043,4.5703125-2.4257813
				c1.1708984-1.0302734,2.0146484-2.2255859,2.53125-3.5859375c0.5151367-1.3588867,0.7734375-2.8125,0.7734375-4.359375
				s-0.2460938-2.940918-0.7382813-4.1835938c-0.4921875-1.2412109-1.3007813-2.4365234-2.4257813-3.5859375
				c-1.125-1.1479492-2.6137695-2.3432617-4.4648438-3.5859375c-1.8525391-1.2412109-4.1132813-2.6367188-6.7851563-4.1835938
				c-2.8598633-1.5927734-5.4614258-3.3154297-7.8046875-5.1679688c-2.3447266-1.8510742-4.359375-3.9130859-6.046875-6.1875
				c-1.6875-2.2729492-3.0004883-4.8041992-3.9375-7.59375c-0.9384766-2.7880859-1.40625-5.894043-1.40625-9.3164063
				c0-3.8901367,0.7260742-7.7099609,2.1796875-11.4609375c1.4521484-3.7495117,3.7265625-7.1015625,6.8203125-10.0546875
				s7.0419922-5.331543,11.8476563-7.1367188c4.8041992-1.8037109,10.534668-2.7070313,17.1914063-2.7070313
				c2.7651367,0,5.4370117,0.152832,8.015625,0.4570313c2.5771484,0.3056641,5.0380859,0.715332,7.3828125,1.2304688
				c2.3432617,0.5166016,4.5458984,1.1020508,6.609375,1.7578125c2.0620117,0.6572266,3.9375,1.3359375,5.625,2.0390625
				L238.824707,145.6132813z"/>
			<path class="st4" d="M346.5429688,163.0507813c0,5.2978516-0.5390625,10.4658203-1.6171875,15.5039063
				c-1.078125,5.0395508-2.7070313,9.7856445-4.8867188,14.2382813c-2.1796875,4.4541016-4.9335938,8.5322266-8.2617188,12.234375
				c-3.328125,3.7036133-7.2539063,6.890625-11.7773438,9.5625s-9.6679688,4.7578125-15.4335938,6.2578125
				c-5.765625,1.5009766-12.1640625,2.25-19.1953125,2.25H244.590332l21.4448242-100.828125h35.4375
				c7.40625,0,13.9101563,1.0087891,19.5117188,3.0234375c5.6015625,2.0161133,10.3007813,4.8164063,14.0976563,8.4023438
				s6.65625,7.875,8.578125,12.8671875S346.5429688,157.0512695,346.5429688,163.0507813z M322.4960938,164.8085938
				c0-3.7495117-0.5273438-7.1123047-1.5820313-10.0898438c-1.0546875-2.9760742-2.671875-5.4951172-4.8515625-7.5585938
				c-2.1796875-2.0620117-4.9335938-3.644043-8.2617188-4.7460938c-3.328125-1.1005859-7.265625-1.6523438-11.8125-1.6523438
				h-11.0390625l-13.5703125,63.9140625h13.8515625c5.71875,0,10.875-0.9492188,15.46875-2.8476563
				s8.5078125-4.5932617,11.7421875-8.0859375c3.234375-3.4912109,5.71875-7.6870117,7.453125-12.5859375
				C321.6289063,176.2587891,322.4960938,170.8095703,322.4960938,164.8085938z"/>
			<path class="st4" d="M256.2973633,313.5615234h-28.40625l-17.4375,82.3359375h-22.8515625l17.3671875-82.3359375h-28.7578125
				l4.0078125-18.4921875h80.0854492L256.2973633,313.5615234z"/>
			<path class="st4" d="M304.6015625,395.8974609h-25.03125l-12.9375-100.828125H289.90625l6.8203125,69.75
				c0.140625,1.6416016,0.2226563,3.3164063,0.2460938,5.0273438c0.0234375,1.7119141-0.1054688,3.2939453-0.3867188,4.7460938
				h0.5625c0.421875-1.359375,0.9726563-2.8828125,1.6523438-4.5703125s1.5117188-3.515625,2.4960938-5.484375l35.015625-69.46875
				h25.03125L304.6015625,395.8974609z"/>
		</g>
		<g>
			<path class="st9" d="M215.6914063,302.5429688c-2.9272461-1.7919922-6.159668-3.5625-9.699707-5.3105469
				c-3.5400391-1.7451172-7.3168945-3.2783203-11.328125-4.6015625c-4.0136719-1.3203125-8.2373047-2.4072266-12.6733398-3.2568359
				c-4.4384766-0.8496094-9.0625-1.2744141-13.8769531-1.2744141c-5.3808594,0-9.9121094,0.7324219-13.59375,2.1953125
				c-3.6816406,1.4648438-6.6088867,3.28125-8.7792969,5.4511719c-2.1728516,2.1728516-3.7304688,4.5097656-4.6728516,7.0097656
				c-0.9448242,2.5019531-1.4160156,4.8378906-1.4160156,7.0087891c0,3.1152344,0.4956055,5.9716797,1.4868164,8.5673828
				c0.9912109,2.5976563,2.5488281,5.0976563,4.6728516,7.5039063c2.1240234,2.4082031,4.9072266,4.8632813,8.3544922,7.3632813
				c3.4448242,2.5029297,7.6220703,5.2636719,12.5317383,8.2841797c6.418457,3.9648438,12.1069336,7.9541016,17.0629883,11.9658203
				c4.9560547,4.0136719,9.1796875,8.3076172,12.6733398,12.8847656c3.4912109,4.5800781,6.1352539,9.5585938,7.9296875,14.9394531
				c1.7919922,5.3808594,2.6904297,11.4238281,2.6904297,18.125c0,3.8720703-0.4492188,8.1201172-1.3452148,12.7441406
				c-0.8984375,4.6269531-2.4316406,9.2753906-4.6020508,13.9472656c-2.1728516,4.6738281-5.168457,9.1826172-8.9916992,13.5234375
				c-3.8232422,4.34375-8.6157227,8.1660156-14.3725586,11.4697266c-5.7592773,3.3056641-12.6733398,5.9716797-20.7446289,8.0009766
				c-8.0712891,2.0283203-17.487793,3.0439453-28.2495117,3.0439453c-6.0424805,0-11.9189453-0.4023438-17.6293945-1.2041016
				c-5.7128906-0.8027344-11.1401367-1.8886719-16.2841797-3.2558594
				c-5.1464844-1.3681641-9.9365234-2.9033203-14.3725586-4.6025391c-4.4384766-1.6992188-8.3544922-3.4443359-11.7529297-5.2392578
				l7.7880859-40.2148438c3.4912109,2.5488281,7.2924805,4.9560547,11.3989258,7.2216797s8.4008789,4.2480469,12.8857422,5.9472656
				c4.4824219,1.6992188,9.1333008,3.0224609,13.9477539,3.9648438c4.8144531,0.9443359,9.675293,1.4160156,14.5849609,1.4160156
				c5.3808594,0,9.9584961-0.5888672,13.7353516-1.7705078c3.7744141-1.1787109,6.8432617-2.8066406,9.2041016-4.8847656
				c2.3583984-2.0751953,4.0576172-4.4824219,5.0976563-7.2216797c1.0375977-2.7373047,1.5576172-5.6640625,1.5576172-8.7792969
				s-0.4956055-5.9228516-1.4868164-8.4248047c-0.9912109-2.5-2.6196289-4.9082031-4.8852539-7.2226563
				c-2.265625-2.3115234-5.2636719-4.71875-8.9916992-7.2207031c-3.7304688-2.5-8.2836914-5.3105469-13.6645508-8.4257813
				c-5.7592773-3.2080078-10.9985352-6.6777344-15.7177734-10.4082031
				c-4.7216797-3.7275391-8.7792969-7.8808594-12.1777344-12.4609375
				c-3.3984375-4.5771484-6.0424805-9.6748047-7.9296875-15.2929688
				c-1.8896484-5.6152344-2.8320313-11.8691406-2.8320313-18.7617188c0-7.8339844,1.4624023-15.5273438,4.3896484-23.0810547
				c2.9248047-7.5517578,7.5048828-14.3017578,13.7353516-20.2490234s14.1821289-10.7373047,23.8598633-14.3730469
				c9.675293-3.6323242,21.2158203-5.4511719,34.621582-5.4511719c5.5688477,0,10.949707,0.3076172,16.1425781,0.9204102
				c5.1904297,0.6152344,10.1464844,1.4404297,14.8681641,2.4780273c4.7192383,1.0400391,9.1552734,2.21875,13.3105469,3.5400391
				c4.152832,1.3232422,7.9296875,2.6904297,11.328125,4.1064453L215.6914063,302.5429688z"/>
			<path class="st9" d="M432.625,337.6601563c0,10.6689453-1.0859375,21.0761719-3.2558594,31.2226563
				c-2.1738281,10.1494141-5.4511719,19.7070313-9.8417969,28.6748047
				c-4.3886719,8.9697266-9.9355469,17.1826172-16.6386719,24.6386719
				c-6.703125,7.4580078-14.609375,13.8769531-23.7167969,19.2578125
				c-9.1113281,5.3808594-19.4707031,9.5830078-31.0820313,12.6025391c-11.6113281,3.0224609-24.4980469,4.53125-38.6582031,4.53125
				h-82.1289063L270.4921875,255.53125h71.3671875c14.9140625,0,28.0117188,2.03125,39.2949219,6.0888672
				c11.2792969,4.0595703,20.7441406,9.7001953,28.390625,16.9208984
				c7.6464844,7.2226563,13.4023438,15.859375,17.2753906,25.9140625
				C430.6894531,314.5078125,432.625,325.578125,432.625,337.6601563z M384.1972656,341.2001953
				c0-7.5517578-1.0605469-14.3232422-3.1855469-20.3193359c-2.1230469-5.9941406-5.3808594-11.0673828-9.7695313-15.2226563
				c-4.390625-4.1523438-9.9375-7.3388672-16.6386719-9.5585938c-6.7050781-2.2167969-14.6347656-3.3271484-23.7890625-3.3271484
				h-22.2324219l-27.328125,128.7158203h27.8945313c11.5175781,0,21.9003906-1.9121094,31.1523438-5.734375
				c9.2519531-3.8242188,17.1347656-9.2509766,23.6484375-16.2851563c6.5136719-7.03125,11.515625-15.4804688,15.0097656-25.3457031
				C382.4492188,364.2597656,384.1972656,353.2851563,384.1972656,341.2001953z"/>
		</g>
		<g>
			<path class="st9" d="M255.4091797,130.2089844h-43.3984375L185.3701172,256h-34.9121094l26.5332031-125.7910156h-43.9355469
				l6.1230469-28.2519531h122.3535156L255.4091797,130.2089844z"/>
			<path class="st9" d="M329.2080078,256h-38.2421875l-19.765625-154.0429688h35.5566406l10.4199219,106.5625
				c0.2148438,2.5078125,0.3388672,5.0673828,0.3759766,7.6806641c0.0351563,2.6152344-0.1611328,5.0322266-0.5908203,7.2509766
				h0.859375c0.6445313-2.0761719,1.4853516-4.4042969,2.5244141-6.9824219
				c1.0371094-2.578125,2.3095703-5.3710938,3.8134766-8.3789063l53.4960938-106.1328125h38.2421875L329.2080078,256z"/>
		</g>
	</g>
</g>
<g id="hd_tv" class="st13">
	<linearGradient id="SVGID_2_" gradientUnits="userSpaceOnUse" x1="255.9995117" y1="0" x2="255.9994965" y2="512.0004883">
		<stop  offset="0" style="stop-color:#0C4C9B"/>
		<stop  offset="0.2766562" style="stop-color:#104A92"/>
		<stop  offset="0.7351259" style="stop-color:#1A4678"/>
		<stop  offset="0.994382" style="stop-color:#214367"/>
	</linearGradient>
	<rect class="st15" width="512" height="512"/>
	<g id="Layer_3" class="st11">
		<g>
			<path class="st9" d="M214.3461914,458.5878906h-46.0205078l17.2753906-82.1289063h-83.4033203l-17.4169922,82.1289063H38.6186523
				L81.8071289,255.53125h46.1621094l-17.4169922,80.9960938h83.5449219l17.4169922-80.9960938h46.0209961L214.3461914,458.5878906z
				"/>
			<path class="st9" d="M465.546875,337.6601563c0,10.6689453-1.0859375,21.0761719-3.2558594,31.2226563
				c-2.1738281,10.1494141-5.4511719,19.7070313-9.8417969,28.6748047
				c-4.3886719,8.9697266-9.9355469,17.1826172-16.6386719,24.6386719
				c-6.703125,7.4580078-14.609375,13.8769531-23.7167969,19.2578125
				c-9.1113281,5.3808594-19.4707031,9.5830078-31.0820313,12.6025391c-11.6113281,3.0224609-24.4980469,4.53125-38.6582031,4.53125
				h-82.1289063L303.4140625,255.53125H374.78125c14.9140625,0,28.0117188,2.03125,39.2949219,6.0888672
				c11.2792969,4.0595703,20.7441406,9.7001953,28.390625,16.9208984
				c7.6464844,7.2226563,13.4023438,15.859375,17.2753906,25.9140625
				C463.6113281,314.5078125,465.546875,325.578125,465.546875,337.6601563z M417.1191406,341.2001953
				c0-7.5517578-1.0605469-14.3232422-3.1855469-20.3193359c-2.1230469-5.9941406-5.3808594-11.0673828-9.7695313-15.2226563
				c-4.390625-4.1523438-9.9375-7.3388672-16.6386719-9.5585938c-6.7050781-2.2167969-14.6347656-3.3271484-23.7890625-3.3271484
				h-22.2324219l-27.328125,128.7158203h27.8945313c11.5175781,0,21.9003906-1.9121094,31.1523438-5.734375
				c9.2519531-3.8242188,17.1347656-9.2509766,23.6484375-16.2851563c6.5136719-7.03125,11.515625-15.4804688,15.0097656-25.3457031
				C415.3710938,364.2597656,417.1191406,353.2851563,417.1191406,341.2001953z"/>
		</g>
		<g>
			<path class="st9" d="M255.4091797,130.2089844h-43.3984375L185.3701172,256h-34.9121094l26.5332031-125.7910156h-43.9355469
				l6.1230469-28.2519531h122.3535156L255.4091797,130.2089844z"/>
			<path class="st9" d="M329.2080078,256h-38.2421875l-19.765625-154.0429688h35.5566406l10.4199219,106.5625
				c0.2148438,2.5078125,0.3388672,5.0673828,0.3759766,7.6806641c0.0351563,2.6152344-0.1611328,5.0322266-0.5908203,7.2509766
				h0.859375c0.6445313-2.0761719,1.4853516-4.4042969,2.5244141-6.9824219
				c1.0371094-2.578125,2.3095703-5.3710938,3.8134766-8.3789063l53.4960938-106.1328125h38.2421875L329.2080078,256z"/>
		</g>
	</g>
</g>
<g id="xvid" class="st13">
	<linearGradient id="SVGID_3_" gradientUnits="userSpaceOnUse" x1="255.9995117" y1="0" x2="255.9994965" y2="512.0004883">
		<stop  offset="0" style="stop-color:#F21E2A"/>
		<stop  offset="0.1778268" style="stop-color:#E91F2A"/>
		<stop  offset="0.4734032" style="stop-color:#CF232C"/>
		<stop  offset="0.8481088" style="stop-color:#A6292E"/>
		<stop  offset="0.994382" style="stop-color:#942C2F"/>
	</linearGradient>
	<rect class="st16" width="512" height="512"/>
	<g id="Layer_3_copy_3" class="st11">
		<g>
			<path class="st9" d="M170.730957,246.7358398l19.96875,49.8520508h-25.734375l-10.125-31.9921875
				c-0.1879883-0.515625-0.3408203-1.125-0.4570313-1.828125c-0.1176758-0.703125-0.2109375-1.4179688-0.28125-2.1445313
				s-0.1298828-1.4296875-0.1757813-2.109375c-0.0473633-0.6796875-0.0703125-1.2304688-0.0703125-1.652832h-0.28125
				c-0.3759766,0.7973633-0.855957,1.9223633-1.4414063,3.3754883c-0.5869141,1.453125-1.3007813,2.765625-2.1445313,3.9375
				l-24.1875,32.4140625h-28.125l43.2421875-51.9614258l-19.4765625-48.8671875h26.5078125l8.9296875,31.0078125
				c0.140625,0.5625,0.269043,1.2075195,0.3867188,1.9335938c0.1162109,0.7275391,0.2109375,1.4658203,0.28125,2.2148438
				c0.0703125,0.7504883,0.1162109,1.4536133,0.140625,2.109375c0.0229492,0.6572266,0.0351563,1.1953125,0.0351563,1.6171875
				h0.3515625c0.140625-0.3745117,0.3271484-0.8544922,0.5625-1.4414063c0.2338867-0.5854492,0.5151367-1.2304688,0.84375-1.9335938
				c0.3271484-0.703125,0.6679688-1.394043,1.0195313-2.0742188c0.3515625-0.6787109,0.7382813-1.3007813,1.1601563-1.8632813
				l24.046875-31.5703125h26.5078125L170.730957,246.7358398z"/>
			<path class="st9" d="M242.0981445,296.5878906h-24.75l-9.4921875-72.0004883h22.1484375l2.8828125,39.8676758
				c0.0932617,0.890625,0.1757813,1.96875,0.2460938,3.234375s0.128418,2.578125,0.1757813,3.9375
				c0.0458984,1.359375,0.0810547,2.7070313,0.1054688,4.0429688c0.0229492,1.3359375-0.012207,2.4960938-0.1054688,3.4804688
				h0.28125c0.3745117-0.984375,0.8193359-2.0742188,1.3359375-3.2695313c0.5151367-1.1953125,1.0546875-2.4375,1.6171875-3.7265625
				s1.1357422-2.578125,1.7226563-3.8671875c0.5854492-1.2890625,1.1357422-2.5195313,1.6523438-3.6914063l19.3354492-40.0083008
				h24.46875L242.0981445,296.5878906z"/>
			<path class="st9" d="M314.1679688,295.9550781c-0.84375,0.234375-1.8173828,0.46875-2.9179688,0.703125
				c-1.1015625,0.234375-2.2744141,0.4570313-3.515625,0.6679688c-1.2421875,0.2109375-2.53125,0.375-3.8671875,0.4921875
				c-1.3359375,0.1152344-2.6611328,0.1757813-3.9726563,0.1757813c-3.140625,0-5.8251953-0.4121094-8.0507813-1.2304688
				c-2.2265625-0.8203125-4.0673828-1.96875-5.5195313-3.4453125c-1.453125-1.4765625-2.5205078-3.234375-3.1992188-5.2734375
				c-0.6796875-2.0390625-1.0195313-4.2773438-1.0195313-6.7148438c0-1.03125,0.0585938-2.1796875,0.1757813-3.4453125
				c0.1162109-1.265625,0.2695313-2.5898438,0.4570313-3.9726563c0.1865234-1.3828125,0.4101563-2.7890625,0.6679688-4.21875
				c0.2568359-1.4296875,0.5273438-2.8007813,0.8085938-4.1132813c0.1865234-0.796875,0.5029297-2.2617188,0.9492188-4.3945313
				c0.4453125-2.1328125,0.9599609-4.581543,1.546875-7.3481445c0.5859375-2.7651367,1.2060547-5.6831055,1.8632813-8.7539063
				c0.65625-3.0693359,1.2763672-5.9873047,1.8632813-8.7539063c0.5859375-2.7651367,1.1005859-5.2138672,1.546875-7.3476563
				c0.4453125-2.1323242,0.7617188-3.5966797,0.9492188-4.3945313h22.5l-8.578125,40.5004883
				c-0.3759766,1.640625-0.7734375,3.4804688-1.1953125,5.5195313s-0.6328125,3.8085938-0.6328125,5.3085938
				c0,1.78125,0.5625,3.0234375,1.6875,3.7265625s2.4140625,1.0546875,3.8671875,1.0546875
				c1.21875,0,2.4492188-0.1289063,3.6914063-0.3867188c1.2412109-0.2578125,2.3789063-0.5976563,3.4101563-1.0195313
				c-0.609375,2.8125-1.1953125,5.5898438-1.7578125,8.3320313S314.7763672,293.1425781,314.1679688,295.9550781z
				 M321.4804688,201.3842773c0,1.828125-0.3515625,3.4697266-1.0546875,4.921875
				c-0.703125,1.4536133-1.6523438,2.7070313-2.8476563,3.7617188s-2.6015625,1.8632813-4.21875,2.4257813
				s-3.3642578,0.84375-5.2382813,0.84375c-1.7822266,0-3.4345703-0.269043-4.9570313-0.8085938
				c-1.5234375-0.5380859-2.8369141-1.2885742-3.9375-2.25c-1.1015625-0.9599609-1.96875-2.097168-2.6015625-3.4101563
				c-0.6328125-1.3115234-0.9492188-2.7421875-0.9492188-4.2890625c0-1.828125,0.3398438-3.4682617,1.0195313-4.921875
				c0.6787109-1.4521484,1.6171875-2.7070313,2.8125-3.7617188s2.6123047-1.8632813,4.2539063-2.4257813
				c1.640625-0.5625,3.4208984-0.84375,5.34375-0.84375c1.78125,0,3.4208984,0.2705078,4.921875,0.8085938
				c1.5,0.5395508,2.8007813,1.2900391,3.9023438,2.25c1.1005859,0.9614258,1.96875,2.0986328,2.6015625,3.4101563
				C321.1640625,198.4082031,321.4804688,199.8374023,321.4804688,201.3842773z"/>
			<path class="st9" d="M395.6601563,272.8222656c-0.328125,1.453125-0.6445313,3.2109375-0.9492188,5.2734375
				c-0.3056641,2.0625-0.5869141,4.2070313-0.84375,6.4335938c-0.2578125,2.2265625-0.46875,4.40625-0.6328125,6.5390625
				c-0.1650391,2.1328125-0.2460938,3.9726563-0.2460938,5.5195313h-22.5c0-0.65625,0.0351563-1.5351563,0.1054688-2.6367188
				s0.1640625-2.2382813,0.28125-3.4101563c0.1162109-1.171875,0.234375-2.3085938,0.3515625-3.4101563
				c0.1162109-1.1015625,0.1992188-1.9804688,0.2460938-2.6367188h-0.28125c-1.453125,2.0625-2.9648438,3.9375-4.5351563,5.625
				c-1.5712891,1.6875-3.2587891,3.140625-5.0625,4.359375c-1.8046875,1.21875-3.7617188,2.1679688-5.8710938,2.8476563
				c-2.109375,0.6777344-4.4296875,1.0195313-6.9609375,1.0195313c-3.4697266,0-6.5742188-0.609375-9.3164063-1.828125
				s-5.0742188-2.9882813-6.9960938-5.3085938c-1.9228516-2.3203125-3.3867188-5.203125-4.3945313-8.6484375
				c-1.0087891-3.4453125-1.5117188-7.3710938-1.5117188-11.7773438c0-6.328125,1.0546875-12.3867188,3.1640625-18.1762695
				c2.109375-5.7885742,5.1679688-10.8862305,9.1757813-15.2929688c4.0078125-4.4052734,8.8945313-7.9208984,14.6601563-10.546875
				c5.765625-2.6245117,12.328125-3.9375,19.6875-3.9375c1.8740234,0,3.7851563,0.0947266,5.7304688,0.28125
				c1.9443359,0.1879883,3.5263672,0.3989258,4.7460938,0.6328125l7.2421875-33.75h22.1484375L395.6601563,272.8222656z
				 M376.9921875,238.6499023c-1.2900391-0.140625-2.5429688-0.2109375-3.7617188-0.2109375
				c-3.234375,0-6.0712891,0.5395508-8.5078125,1.6171875c-2.4375,1.0791016-4.5595703,2.4960938-6.3632813,4.2539063
				c-1.8046875,1.7578125-3.3164063,3.7509766-4.5351563,5.9765625c-1.2197266,2.2270508-2.1914063,4.4770508-2.9179688,6.7504883
				c-0.7275391,2.2734375-1.2421875,4.4765625-1.546875,6.609375c-0.3056641,2.1328125-0.4570313,3.9960938-0.4570313,5.5898438
				c0,1.734375,0.1865234,3.3398438,0.5625,4.8164063c0.375,1.4765625,0.9248047,2.7539063,1.6523438,3.8320313
				c0.7265625,1.078125,1.6630859,1.921875,2.8125,2.53125c1.1484375,0.609375,2.4960938,0.9140625,4.0429688,0.9140625
				c2.5771484,0,4.8867188-0.7617188,6.9257813-2.2851563s3.8427734-3.515625,5.4140625-5.9765625
				c1.5703125-2.4609375,2.8935547-5.2265625,3.9726563-8.296875c1.078125-3.0703125,1.96875-6.1523438,2.671875-9.246582
				l3.5859375-16.2421875C379.4638672,239.0014648,378.28125,238.7905273,376.9921875,238.6499023z"/>
		</g>
	</g>
</g>
<g id="dvd" class="st13">
	<rect class="st12" width="512" height="512"/>
	<g id="Layer_3_copy_2" class="st11">
		<g>
			<path class="st9" d="M207.6450195,236.5405273c0,5.2978516-0.5395508,10.4658203-1.6171875,15.5039063
				c-1.0791016,5.0395508-2.7070313,9.7856445-4.8867188,14.2387695s-4.934082,8.53125-8.2617188,12.234375
				c-3.3291016,3.703125-7.2543945,6.890625-11.7773438,9.5625c-4.5244141,2.671875-9.6679688,4.7578125-15.4335938,6.2578125
				s-12.1640625,2.25-19.1953125,2.25h-40.78125l21.4453125-100.8286133h35.4375
				c7.4057617,0,13.909668,1.0087891,19.5117188,3.0234375c5.6005859,2.0161133,10.3007813,4.8164063,14.0976563,8.4023438
				s6.6552734,7.875,8.578125,12.8671875C206.6835938,225.0444336,207.6450195,230.5410156,207.6450195,236.5405273z
				 M183.5981445,238.2983398c0-3.7495117-0.5273438-7.1123047-1.5820313-10.0898438
				c-1.0546875-2.9760742-2.671875-5.4951172-4.8515625-7.5585938c-2.1796875-2.0620117-4.934082-3.644043-8.2617188-4.7460938
				c-3.3291016-1.1005859-7.2666016-1.6523438-11.8125-1.6523438h-11.0390625l-13.5703125,63.9145508h13.8515625
				c5.7182617,0,10.8740234-0.9492188,15.46875-2.8476563c4.5932617-1.8984375,8.5078125-4.59375,11.7421875-8.0859375
				s5.7182617-7.6875,7.453125-12.5864258C182.7299805,249.7485352,183.5981445,244.2993164,183.5981445,238.2983398z"/>
			<path class="st9" d="M258.3398438,296.5878906H233.309082l-12.9375-100.8286133h23.2734375l6.8203125,69.7504883
				c0.140625,1.640625,0.2216797,3.3164063,0.2460938,5.0273438c0.0229492,1.7109375-0.1054688,3.2929688-0.3867188,4.7460938
				h0.5625c0.421875-1.359375,0.972168-2.8828125,1.6523438-4.5703125c0.6787109-1.6875,1.5117188-3.515625,2.4960938-5.484375
				l35.0151367-69.4692383h25.03125L258.3398438,296.5878906z"/>
			<path class="st9" d="M407.8242188,236.5405273c0,5.2978516-0.5390625,10.4658203-1.6171875,15.5039063
				c-1.0791016,5.0395508-2.7070313,9.7856445-4.8867188,14.2387695s-4.9335938,8.53125-8.2617188,12.234375
				c-3.3291016,3.703125-7.2539063,6.890625-11.7773438,9.5625c-4.5244141,2.671875-9.6679688,4.7578125-15.4335938,6.2578125
				s-12.1640625,2.25-19.1953125,2.25h-40.78125l21.4453125-100.8286133h35.4375
				c7.40625,0,13.9101563,1.0087891,19.5117188,3.0234375c5.6005859,2.0161133,10.3007813,4.8164063,14.0976563,8.4023438
				s6.6552734,7.875,8.578125,12.8671875C406.8632813,225.0444336,407.8242188,230.5410156,407.8242188,236.5405273z
				 M383.7773438,238.2983398c0-3.7495117-0.5273438-7.1123047-1.5820313-10.0898438
				c-1.0546875-2.9760742-2.671875-5.4951172-4.8515625-7.5585938c-2.1796875-2.0620117-4.9335938-3.644043-8.2617188-4.7460938
				c-3.3291016-1.1005859-7.2666016-1.6523438-11.8125-1.6523438h-11.0390625l-13.5703125,63.9145508h13.8515625
				c5.71875,0,10.8740234-0.9492188,15.46875-2.8476563c4.59375-1.8984375,8.5078125-4.59375,11.7421875-8.0859375
				s5.71875-7.6875,7.453125-12.5864258C382.9091797,249.7485352,383.7773438,244.2993164,383.7773438,238.2983398z"/>
		</g>
	</g>
</g>
<g id="sd" class="st13">
	<rect class="st3" width="512" height="512"/>
	<g id="Layer_3_copy_5" class="st11">
		<g>
			<path class="st9" d="M238.6879883,219.1030273c-1.4536133-0.8896484-3.0585938-1.7685547-4.8164063-2.6367188
				c-1.7578125-0.8666992-3.6333008-1.6279297-5.625-2.2851563c-1.9931641-0.6557617-4.090332-1.1953125-6.2929688-1.6171875
				c-2.2041016-0.421875-4.5-0.6328125-6.890625-0.6328125c-2.671875,0-4.921875,0.3637695-6.75,1.0898438
				c-1.828125,0.7275391-3.2817383,1.6293945-4.359375,2.7070313c-1.0791016,1.0791016-1.8525391,2.2392578-2.3203125,3.4804688
				c-0.4692383,1.2426758-0.703125,2.402832-0.703125,3.4804688c0,1.546875,0.2460938,2.965332,0.7382813,4.2539063
				c0.4921875,1.2900391,1.265625,2.53125,2.3203125,3.7265625s2.4365234,2.4150391,4.1484375,3.65625
				c1.7104492,1.2426758,3.784668,2.6137695,6.2226563,4.1132813c3.1870117,1.96875,6.0117188,3.949707,8.4726563,5.9414063
				c2.4609375,1.9931641,4.5581055,4.1254883,6.2929688,6.3984375c1.7333984,2.2744141,3.0463867,4.7460938,3.9375,7.418457
				c0.8896484,2.671875,1.3359375,5.671875,1.3359375,9c0,1.921875-0.2231445,4.03125-0.6679688,6.328125
				c-0.4462891,2.296875-1.2075195,4.6054688-2.2851563,6.9257813c-1.0791016,2.3203125-2.5664063,4.5585938-4.4648438,6.7148438
				s-4.2783203,4.0546875-7.1367188,5.6953125c-2.8598633,1.640625-6.2929688,2.9648438-10.3007813,3.9726563
				s-8.6835938,1.5117188-14.0273438,1.5117188c-3.0004883,0-5.918457-0.2011719-8.7539063-0.5976563
				c-2.8369141-0.3984375-5.5317383-0.9394531-8.0859375-1.6171875c-2.5556641-0.6796875-4.934082-1.4414063-7.1367188-2.2851563
				c-2.2041016-0.84375-4.1484375-1.7109375-5.8359375-2.6015625l3.8671875-19.96875
				c1.7333984,1.265625,3.6210938,2.4609375,5.6601563,3.5859375s4.1713867,2.109375,6.3984375,2.953125
				c2.2255859,0.84375,4.5351563,1.5,6.9257813,1.96875s4.8041992,0.703125,7.2421875,0.703125
				c2.671875,0,4.9448242-0.2929688,6.8203125-0.8789063c1.8740234-0.5859375,3.3979492-1.3945313,4.5703125-2.4257813
				c1.1708984-1.03125,2.0146484-2.2265625,2.53125-3.5859375c0.5151367-1.359375,0.7734375-2.8125,0.7734375-4.359375
				s-0.2460938-2.9414063-0.7382813-4.1835938s-1.3007813-2.4375-2.4257813-3.5859375s-2.6137695-2.34375-4.4648438-3.5859375
				c-1.8525391-1.2416992-4.1132813-2.637207-6.7851563-4.184082c-2.8598633-1.5927734-5.4614258-3.3154297-7.8046875-5.1679688
				c-2.3447266-1.8510742-4.359375-3.9130859-6.046875-6.1875c-1.6875-2.2729492-3.0004883-4.8041992-3.9375-7.59375
				c-0.9384766-2.7880859-1.40625-5.894043-1.40625-9.3164063c0-3.8901367,0.7260742-7.7099609,2.1796875-11.4609375
				c1.4521484-3.7495117,3.7265625-7.1015625,6.8203125-10.0546875s7.0419922-5.331543,11.8476563-7.1367188
				c4.8041992-1.8037109,10.534668-2.7070313,17.1914063-2.7070313c2.7651367,0,5.4370117,0.152832,8.015625,0.4570313
				c2.5771484,0.3056641,5.0380859,0.715332,7.3828125,1.2304688c2.3432617,0.5166016,4.5458984,1.1020508,6.609375,1.7578125
				c2.0620117,0.6572266,3.9375,1.3359375,5.625,2.0390625L238.6879883,219.1030273z"/>
			<path class="st9" d="M346.40625,236.5405273c0,5.2978516-0.5390625,10.4658203-1.6171875,15.5039063
				c-1.078125,5.0395508-2.7070313,9.7856445-4.8867188,14.2387695s-4.9335938,8.53125-8.2617188,12.234375
				s-7.2539063,6.890625-11.7773438,9.5625s-9.6679688,4.7578125-15.4335938,6.2578125s-12.1640625,2.25-19.1953125,2.25
				h-40.7807617l21.4448242-100.8286133h35.4375c7.40625,0,13.9101563,1.0087891,19.5117188,3.0234375
				c5.6015625,2.0161133,10.3007813,4.8164063,14.0976563,8.4023438s6.65625,7.875,8.578125,12.8671875
				S346.40625,230.5410156,346.40625,236.5405273z M322.359375,238.2983398c0-3.7495117-0.5273438-7.1123047-1.5820313-10.0898438
				c-1.0546875-2.9760742-2.671875-5.4951172-4.8515625-7.5585938c-2.1796875-2.0620117-4.9335938-3.644043-8.2617188-4.7460938
				c-3.328125-1.1005859-7.265625-1.6523438-11.8125-1.6523438H284.8125l-13.5703125,63.9145508H285.09375
				c5.71875,0,10.875-0.9492188,15.46875-2.8476563s8.5078125-4.59375,11.7421875-8.0859375s5.71875-7.6875,7.453125-12.5864258
				C321.4921875,249.7485352,322.359375,244.2993164,322.359375,238.2983398z"/>
		</g>
	</g>
</g>
<g id="hd">
	<linearGradient id="SVGID_4_" gradientUnits="userSpaceOnUse" x1="255.9995117" y1="0" x2="255.9994965" y2="512.0004883">
		<stop  offset="0" style="stop-color:#960505"/>
		<stop  offset="0.2937581" style="stop-color:#8D0A0A"/>
		<stop  offset="0.7805237" style="stop-color:#731919"/>
		<stop  offset="0.994382" style="stop-color:#662020"/>
	</linearGradient>
	<rect class="st5" width="512" height="512"/>
	<g id="Layer_3_copy_4">
		<g>
			<path class="st9" d="M218.6875,358.3681641h-46.0195313l17.2753906-82.1289063h-83.4038086l-17.4169922,82.1289063H42.9604492
				l43.1884766-203.0566406h46.1621094l-17.4169922,80.9960938h83.5454102l17.4160156-80.9960938h46.0214844L218.6875,358.3681641z"
				/>
			<path class="st9" d="M469.8896484,237.4404297c0,10.6689453-1.0859375,21.0771484-3.2568359,31.2236328
				c-2.1728516,10.1484375-5.4511719,19.7070313-9.8417969,28.6738281
				c-4.3886719,8.9697266-9.9355469,17.1826172-16.6376953,24.6386719
				c-6.7041016,7.4589844-14.609375,13.8769531-23.7177734,19.2578125
				c-9.1113281,5.3808594-19.4707031,9.5820313-31.0820313,12.6025391c-11.6113281,3.0224609-24.4970703,4.53125-38.6572266,4.53125
				h-82.1289063l43.1884766-203.0566406h71.3671875c14.9150391,0,28.0126953,2.03125,39.2949219,6.0888672
				c11.2792969,4.0600586,20.7441406,9.699707,28.390625,16.9213867s13.4033203,15.859375,17.2753906,25.9130859
				C467.9541016,214.2885742,469.8896484,225.3579102,469.8896484,237.4404297z M421.4619141,240.9804688
				c0-7.5512695-1.0615234-14.3237305-3.1865234-20.3198242c-2.1230469-5.9936523-5.3808594-11.0668945-9.7695313-15.222168
				c-4.390625-4.152832-9.9365234-7.3388672-16.6386719-9.5581055c-6.7041016-2.2167969-14.6337891-3.3276367-23.7890625-3.3276367
				h-22.2314453l-27.3291016,128.7158203h27.8955078c11.5166016,0,21.8994141-1.9111328,31.1523438-5.7353516
				c9.2509766-3.8222656,17.1337891-9.25,23.6474609-16.2832031c6.5136719-7.03125,11.5166016-15.4814453,15.0097656-25.3476563
				C419.7138672,264.0390625,421.4619141,253.0654297,421.4619141,240.9804688z"/>
		</g>
	</g>
</g>
<g id="win_apps" class="st13">
	<linearGradient id="SVGID_5_" gradientUnits="userSpaceOnUse" x1="255.9995117" y1="0" x2="255.9994965" y2="512.0004883">
		<stop  offset="0" style="stop-color:#0A9A15"/>
		<stop  offset="0.2892004" style="stop-color:#0E9118"/>
		<stop  offset="0.7685342" style="stop-color:#1A7720"/>
		<stop  offset="0.994382" style="stop-color:#206925"/>
	</linearGradient>
	<rect class="st17" width="512" height="512"/>
	<g id="Layer_3_copy_6" class="st11">
		<g>
			<path class="st9" d="M145.8051758,296.5878906l-2.8828125-22.4296875h-36.140625l-11.8125,22.4296875h-25.59375
				l58.1484375-100.8286133h27.0703125l14.4140625,100.8286133H145.8051758z M137.5786133,222.6889648
				c-0.0473633-0.7490234-0.0825195-1.5820313-0.1054688-2.4960938c-0.0244141-0.9140625-0.0244141-1.7929688,0-2.6367188
				c0.0229492-0.84375,0.0581055-1.6049805,0.1054688-2.2851563c0.0458984-0.6787109,0.0932617-1.1831055,0.140625-1.5117188
				h-0.421875c-0.0947266,0.421875-0.2583008,0.9614258-0.4921875,1.6171875
				c-0.2353516,0.6572266-0.5043945,1.3710938-0.8085938,2.1445313c-0.3056641,0.7734375-0.6572266,1.5820313-1.0546875,2.4257813
				c-0.3989258,0.84375-0.8085938,1.6645508-1.2304688,2.4609375l-18.421875,34.3125h25.9453125L137.5786133,222.6889648z"/>
			<path class="st9" d="M270.3984375,224.4467773c0,4.9692383-0.8671875,9.715332-2.6015625,14.2382813
				c-1.734375,4.5244141-4.4296875,8.4970703-8.0859375,11.9179688c-3.6557617,3.4223633-8.2963867,6.1523438-13.9213867,8.1918945
				c-5.625,2.0390625-12.3520508,3.0585938-20.1796875,3.0585938h-14.1328125l-7.3125,34.734375h-22.921875l21.4453125-100.8286133
				h34.59375c5.7182617,0,10.6630859,0.7382813,14.8359375,2.2148438c4.1713867,1.4765625,7.6049805,3.4926758,10.300293,6.046875
				c2.6953125,2.5556641,4.6992188,5.5791016,6.0117188,9.0703125
				C269.7421875,216.5839844,270.3984375,220.3686523,270.3984375,224.4467773z M246.3520508,225.9936523
				c0-3.8901367-1.3129883-6.9960938-3.9375-9.3164063c-2.6259766-2.3203125-6.4931641-3.4804688-11.6015625-3.4804688h-8.9296875
				l-6.6796875,31.4296875h10.40625c3.6088867,0,6.7148438-0.5029297,9.3164063-1.5117188
				c2.6015625-1.0073242,4.7460938-2.3662109,6.4335938-4.078125c1.6875-1.7104492,2.940918-3.6914063,3.7617188-5.9414063
				C245.940918,230.8452148,246.3520508,228.4790039,246.3520508,225.9936523z"/>
			<path class="st9" d="M361.1015625,224.4467773c0,4.9692383-0.8681641,9.715332-2.6015625,14.2382813
				c-1.734375,4.5244141-4.4296875,8.4970703-8.0859375,11.9179688c-3.65625,3.4223633-8.296875,6.1523438-13.921875,8.1918945
				c-5.625,2.0390625-12.3515625,3.0585938-20.1796875,3.0585938h-14.1328125l-7.3125,34.734375h-22.921875l21.4453125-100.8286133
				h34.59375c5.71875,0,10.6630859,0.7382813,14.8359375,2.2148438c4.171875,1.4765625,7.6044922,3.4926758,10.3007813,6.046875
				c2.6953125,2.5556641,4.6992188,5.5791016,6.0117188,9.0703125
				C360.4443359,216.5839844,361.1015625,220.3686523,361.1015625,224.4467773z M337.0546875,225.9936523
				c0-3.8901367-1.3125-6.9960938-3.9375-9.3164063c-2.6259766-2.3203125-6.4931641-3.4804688-11.6015625-3.4804688h-8.9296875
				l-6.6796875,31.4296875h10.40625c3.609375,0,6.7148438-0.5029297,9.3164063-1.5117188
				c2.6015625-1.0073242,4.7460938-2.3662109,6.4335938-4.078125c1.6875-1.7104492,2.9414063-3.6914063,3.7617188-5.9414063
				C336.6435547,230.8452148,337.0546875,228.4790039,337.0546875,225.9936523z"/>
			<path class="st9" d="M434.2265625,219.1030273c-1.453125-0.8896484-3.0585938-1.7685547-4.8164063-2.6367188
				c-1.7578125-0.8666992-3.6328125-1.6279297-5.625-2.2851563c-1.9931641-0.6557617-4.0898438-1.1953125-6.2929688-1.6171875
				c-2.2041016-0.421875-4.5-0.6328125-6.890625-0.6328125c-2.671875,0-4.921875,0.3637695-6.75,1.0898438
				c-1.828125,0.7275391-3.28125,1.6293945-4.359375,2.7070313c-1.0791016,1.0791016-1.8525391,2.2392578-2.3203125,3.4804688
				c-0.46875,1.2426758-0.703125,2.402832-0.703125,3.4804688c0,1.546875,0.2460938,2.965332,0.7382813,4.2539063
				c0.4921875,1.2900391,1.265625,2.53125,2.3203125,3.7265625s2.4365234,2.4150391,4.1484375,3.65625
				c1.7109375,1.2426758,3.7851563,2.6137695,6.2226563,4.1132813c3.1875,1.96875,6.0117188,3.949707,8.4726563,5.9414063
				c2.4609375,1.9931641,4.5585938,4.1254883,6.2929688,6.3984375c1.7333984,2.2744141,3.046875,4.7460938,3.9375,7.418457
				c0.8896484,2.671875,1.3359375,5.671875,1.3359375,9c0,1.921875-0.2226563,4.03125-0.6679688,6.328125
				c-0.4462891,2.296875-1.2070313,4.6054688-2.2851563,6.9257813c-1.0791016,2.3203125-2.5664063,4.5585938-4.4648438,6.7148438
				s-4.2783203,4.0546875-7.1367188,5.6953125c-2.859375,1.640625-6.2929688,2.9648438-10.3007813,3.9726563
				s-8.6835938,1.5117188-14.0273438,1.5117188c-3,0-5.9179688-0.2011719-8.7539063-0.5976563
				c-2.8369141-0.3984375-5.53125-0.9394531-8.0859375-1.6171875c-2.5556641-0.6796875-4.9335938-1.4414063-7.1367188-2.2851563
				c-2.2041016-0.84375-4.1484375-1.7109375-5.8359375-2.6015625l3.8671875-19.96875
				c1.7333984,1.265625,3.6210938,2.4609375,5.6601563,3.5859375s4.171875,2.109375,6.3984375,2.953125
				c2.2255859,0.84375,4.5351563,1.5,6.9257813,1.96875s4.8046875,0.703125,7.2421875,0.703125
				c2.671875,0,4.9453125-0.2929688,6.8203125-0.8789063c1.8740234-0.5859375,3.3984375-1.3945313,4.5703125-2.4257813
				c1.1708984-1.03125,2.0146484-2.2265625,2.53125-3.5859375c0.515625-1.359375,0.7734375-2.8125,0.7734375-4.359375
				s-0.2460938-2.9414063-0.7382813-4.1835938s-1.3007813-2.4375-2.4257813-3.5859375s-2.6132813-2.34375-4.4648438-3.5859375
				c-1.8525391-1.2416992-4.1132813-2.637207-6.7851563-4.184082c-2.859375-1.5927734-5.4609375-3.3154297-7.8046875-5.1679688
				c-2.3447266-1.8510742-4.359375-3.9130859-6.046875-6.1875c-1.6875-2.2729492-3-4.8041992-3.9375-7.59375
				c-0.9384766-2.7880859-1.40625-5.894043-1.40625-9.3164063c0-3.8901367,0.7265625-7.7099609,2.1796875-11.4609375
				c1.4521484-3.7495117,3.7265625-7.1015625,6.8203125-10.0546875s7.0419922-5.331543,11.8476563-7.1367188
				c4.8046875-1.8037109,10.5351563-2.7070313,17.1914063-2.7070313c2.765625,0,5.4375,0.152832,8.015625,0.4570313
				c2.5771484,0.3056641,5.0380859,0.715332,7.3828125,1.2304688c2.34375,0.5166016,4.5458984,1.1020508,6.609375,1.7578125
				c2.0625,0.6572266,3.9375,1.3359375,5.625,2.0390625L434.2265625,219.1030273z"/>
		</g>
	</g>
</g>
<g id="games" class="st13">
	<linearGradient id="SVGID_6_" gradientUnits="userSpaceOnUse" x1="255.9995117" y1="0" x2="255.9994965" y2="512.0004883">
		<stop  offset="0" style="stop-color:#F4B113"/>
		<stop  offset="0.1749831" style="stop-color:#EBAB15"/>
		<stop  offset="0.4659598" style="stop-color:#D19A19"/>
		<stop  offset="0.8347928" style="stop-color:#A88020"/>
		<stop  offset="0.994382" style="stop-color:#947323"/>
	</linearGradient>
	<rect class="st18" width="512" height="512"/>
	<g id="Layer_3_copy_7" class="st11">
		<g>
			<path class="st9" d="M111.7739258,220.5795898c-1.4536133-0.984375-3.1411133-1.9335938-5.0625-2.8476563
				c-1.9228516-0.9140625-4.0200195-1.7104492-6.2929688-2.390625c-2.2744141-0.6787109-4.6879883-1.2304688-7.2421875-1.6523438
				c-2.5556641-0.421875-5.1923828-0.6328125-7.9101563-0.6328125c-5.8603516,0-11.1445313,0.9492188-15.8554688,2.8476563
				s-8.71875,4.5703125-12.0234375,8.015625s-5.8359375,7.59375-7.59375,12.4453125s-2.6367188,10.2304688-2.6367188,16.1367188
				c0,4.2661133,0.5854492,8.0864258,1.7578125,11.4614258c1.1708984,3.375,2.8476563,6.2109375,5.0273438,8.5078125
				s4.8164063,4.0546875,7.9101563,5.2734375s6.5390625,1.828125,10.3359375,1.828125
				c2.53125,0,4.628418-0.1523438,6.2929688-0.4570313c1.6630859-0.3046875,3.1748047-0.6679688,4.5351563-1.0898438
				l4.2890625-20.4609375H66.8442383l3.8671875-18.1411133h43.1015625l-10.828125,51.1176758
				c-2.0161133,0.984375-4.21875,1.9335938-6.609375,2.8476563s-4.9921875,1.7460938-7.8046875,2.4960938
				c-2.8125,0.7480469-5.8359375,1.3457031-9.0703125,1.7929688c-3.234375,0.4453125-6.7270508,0.6679688-10.4765625,0.6679688
				c-7.2192383,0-13.6757813-1.0800781-19.3710938-3.234375c-5.6953125-2.15625-10.4887695-5.203125-14.3789063-9.140625
				c-3.8916016-3.9375-6.8676758-8.6601563-8.9296875-14.1679688c-2.0634766-5.5078125-3.09375-11.5898438-3.09375-18.246582
				c0-5.2490234,0.5854492-10.3710938,1.7578125-15.3632813c1.1708984-4.9921875,2.9179688-9.690918,5.2382813-14.0976563
				c2.3203125-4.4052734,5.2260742-8.4482422,8.71875-12.1289063c3.4912109-3.6791992,7.5693359-6.8432617,12.234375-9.4921875
				c4.6635742-2.6474609,9.9248047-4.7109375,15.7851563-6.1875c5.8588867-1.4765625,12.3046875-2.2148438,19.3359375-2.2148438
				c3.1870117,0,6.2226563,0.1757813,9.1054688,0.5273438s5.5898438,0.8085938,8.1210938,1.3710938
				s4.8623047,1.1845703,6.9960938,1.8632813c2.1323242,0.6801758,4.0429688,1.3481445,5.7304688,2.0039063L111.7739258,220.5795898
				z"/>
			<path class="st9" d="M186.7973633,296.5878906l-2.8828125-22.4296875h-36.140625l-11.8125,22.4296875h-25.59375
				l58.1484375-100.8286133h27.0703125l14.4140625,100.8286133H186.7973633z M178.5708008,222.6889648
				c-0.0473633-0.7490234-0.0825195-1.5820313-0.1054688-2.4960938c-0.0244141-0.9140625-0.0244141-1.7929688,0-2.6367188
				c0.0229492-0.84375,0.0581055-1.6049805,0.1054688-2.2851563c0.0458984-0.6787109,0.0932617-1.1831055,0.140625-1.5117188
				h-0.421875c-0.0947266,0.421875-0.2583008,0.9614258-0.4921875,1.6171875
				c-0.2353516,0.6572266-0.5043945,1.3710938-0.8085938,2.1445313c-0.3056641,0.7734375-0.6572266,1.5820313-1.0546875,2.4257813
				c-0.3989258,0.84375-0.8085938,1.6645508-1.2304688,2.4609375l-18.421875,34.3125h25.9453125L178.5708008,222.6889648z"/>
			<path class="st9" d="M324.609375,296.5878906H304.21875l12.796875-60.3286133
				c1.40625-6.4213867,3.234375-13.6162109,5.484375-21.5859375h-0.5625c-0.65625,1.5009766-1.3476563,3.0004883-2.0742188,4.5
				c-0.7265625,1.5009766-1.4414063,2.9179688-2.1445313,4.2539063s-1.359375,2.53125-1.96875,3.5859375
				s-1.1484375,1.9106445-1.6171875,2.5664063l-27,36.7739258h-15.890625l-10.4765625-36.0708008
				c-0.234375-0.703125-0.4570313-1.815918-0.6679688-3.3398438c-0.2109375-1.5224609-0.3164063-3.1044922-0.3164063-4.7460938
				v-7.5234375h-0.6328125c-0.65625,4.4067383-1.3007813,8.4619141-1.9335938,12.1640625
				c-0.6323242,3.7036133-1.2070313,6.8203125-1.722168,9.3515625l-12.8671875,60.3989258h-20.4609375l21.4453125-100.8286133
				h26.9995117l10.3359375,35.015625c0.328125,1.125,0.6328125,2.3325195,0.9140625,3.6210938
				c0.28125,1.2900391,0.515625,2.5786133,0.703125,3.8671875c0.1875,1.2900391,0.328125,2.53125,0.421875,3.7265625
				s0.140625,2.262207,0.140625,3.1992188h0.3515625c0.515625-1.0302734,1.0664063-2.1904297,1.6523438-3.4804688
				c0.5859375-1.2885742,1.1953125-2.6015625,1.828125-3.9375s1.3007813-2.6245117,2.0039063-3.8671875
				c0.703125-1.2412109,1.40625-2.3310547,2.109375-3.2695313l25.734375-34.875h29.25L324.609375,296.5878906z"/>
			<path class="st9" d="M423.046875,214.2514648h-35.2265625l-4.78125,22.7109375H415.875l-4.0078125,18.5625H379.171875
				L374.25,278.1660156h37.6171875l-3.9375,18.421875h-60.46875L368.90625,195.7592773h58.078125L423.046875,214.2514648z"/>
			<path class="st9" d="M495.328125,219.1030273c-1.453125-0.8896484-3.0585938-1.7685547-4.8164063-2.6367188
				c-1.7578125-0.8666992-3.6328125-1.6279297-5.625-2.2851563c-1.9931641-0.6557617-4.0898438-1.1953125-6.2929688-1.6171875
				c-2.2041016-0.421875-4.5-0.6328125-6.890625-0.6328125c-2.671875,0-4.921875,0.3637695-6.75,1.0898438
				c-1.828125,0.7275391-3.28125,1.6293945-4.359375,2.7070313c-1.0791016,1.0791016-1.8525391,2.2392578-2.3203125,3.4804688
				c-0.46875,1.2426758-0.703125,2.402832-0.703125,3.4804688c0,1.546875,0.2460938,2.965332,0.7382813,4.2539063
				c0.4921875,1.2900391,1.265625,2.53125,2.3203125,3.7265625s2.4365234,2.4150391,4.1484375,3.65625
				c1.7109375,1.2426758,3.7851563,2.6137695,6.2226563,4.1132813c3.1875,1.96875,6.0117188,3.949707,8.4726563,5.9414063
				c2.4609375,1.9931641,4.5585938,4.1254883,6.2929688,6.3984375c1.7333984,2.2744141,3.046875,4.7460938,3.9375,7.418457
				c0.8896484,2.671875,1.3359375,5.671875,1.3359375,9c0,1.921875-0.2226563,4.03125-0.6679688,6.328125
				c-0.4462891,2.296875-1.2070313,4.6054688-2.2851563,6.9257813c-1.0791016,2.3203125-2.5664063,4.5585938-4.4648438,6.7148438
				s-4.2783203,4.0546875-7.1367188,5.6953125c-2.859375,1.640625-6.2929688,2.9648438-10.3007813,3.9726563
				S457.5,298.3457031,452.15625,298.3457031c-3,0-5.9179688-0.2011719-8.7539063-0.5976563
				c-2.8369141-0.3984375-5.53125-0.9394531-8.0859375-1.6171875c-2.5556641-0.6796875-4.9335938-1.4414063-7.1367188-2.2851563
				c-2.2041016-0.84375-4.1484375-1.7109375-5.8359375-2.6015625l3.8671875-19.96875
				c1.7333984,1.265625,3.6210938,2.4609375,5.6601563,3.5859375s4.171875,2.109375,6.3984375,2.953125
				c2.2255859,0.84375,4.5351563,1.5,6.9257813,1.96875S450,280.4863281,452.4375,280.4863281
				c2.671875,0,4.9453125-0.2929688,6.8203125-0.8789063c1.8740234-0.5859375,3.3984375-1.3945313,4.5703125-2.4257813
				c1.1708984-1.03125,2.0146484-2.2265625,2.53125-3.5859375c0.515625-1.359375,0.7734375-2.8125,0.7734375-4.359375
				s-0.2460938-2.9414063-0.7382813-4.1835938s-1.3007813-2.4375-2.4257813-3.5859375s-2.6132813-2.34375-4.4648438-3.5859375
				c-1.8525391-1.2416992-4.1132813-2.637207-6.7851563-4.184082c-2.859375-1.5927734-5.4609375-3.3154297-7.8046875-5.1679688
				c-2.3447266-1.8510742-4.359375-3.9130859-6.046875-6.1875c-1.6875-2.2729492-3-4.8041992-3.9375-7.59375
				c-0.9384766-2.7880859-1.40625-5.894043-1.40625-9.3164063c0-3.8901367,0.7265625-7.7099609,2.1796875-11.4609375
				c1.4521484-3.7495117,3.7265625-7.1015625,6.8203125-10.0546875s7.0419922-5.331543,11.8476563-7.1367188
				c4.8046875-1.8037109,10.5351563-2.7070313,17.1914063-2.7070313c2.765625,0,5.4375,0.152832,8.015625,0.4570313
				c2.5771484,0.3056641,5.0380859,0.715332,7.3828125,1.2304688c2.34375,0.5166016,4.5458984,1.1020508,6.609375,1.7578125
				c2.0625,0.6572266,3.9375,1.3359375,5.625,2.0390625L495.328125,219.1030273z"/>
		</g>
	</g>
</g>
<g id="music" class="st13">
	<rect class="st0" width="512" height="512"/>
	<g id="Layer_3_copy_8" class="st11">
		<g>
			<path class="st9" d="M140.496582,296.5878906h-20.390625l12.796875-60.3286133
				c1.40625-6.4213867,3.234375-13.6162109,5.484375-21.5859375h-0.5625c-0.6572266,1.5009766-1.3481445,3.0004883-2.0742188,4.5
				c-0.7275391,1.5009766-1.4414063,2.9179688-2.1445313,4.2539063s-1.3603516,2.53125-1.96875,3.5859375
				c-0.6098633,1.0546875-1.1494141,1.9106445-1.6171875,2.5664063l-27,36.7739258h-15.890625L76.652832,230.2827148
				c-0.2353516-0.703125-0.4570313-1.815918-0.6679688-3.3398438c-0.2109375-1.5224609-0.3164063-3.1044922-0.3164063-4.7460938
				v-7.5234375h-0.6328125c-0.6572266,4.4067383-1.3007813,8.4619141-1.9335938,12.1640625
				c-0.6328125,3.7036133-1.2075195,6.8203125-1.7226563,9.3515625L58.512207,296.5878906H38.0512695L59.496582,195.7592773h27
				l10.3359375,35.015625c0.3271484,1.125,0.6328125,2.3325195,0.9140625,3.6210938
				c0.28125,1.2900391,0.5151367,2.5786133,0.703125,3.8671875c0.1865234,1.2900391,0.3271484,2.53125,0.421875,3.7265625
				c0.0932617,1.1953125,0.140625,2.262207,0.140625,3.1992188h0.3515625
				c0.5151367-1.0302734,1.0654297-2.1904297,1.6523438-3.4804688c0.5854492-1.2885742,1.1953125-2.6015625,1.828125-3.9375
				s1.3007813-2.6245117,2.0039063-3.8671875c0.703125-1.2412109,1.40625-2.3310547,2.109375-3.2695313l25.734375-34.875h29.25
				L140.496582,296.5878906z"/>
			<path class="st9" d="M254.3325195,255.5249023c-1.40625,6.6098633-3.2114258,12.5629883-5.4140625,17.8598633
				c-2.2041016,5.296875-5.1220703,9.796875-8.7539063,13.5c-3.6333008,3.703125-8.1455078,6.5390625-13.5351563,8.5078125
				c-5.3911133,1.96875-11.9775391,2.953125-19.7578125,2.953125c-5.625,0-10.6875-0.7734375-15.1875-2.3203125
				s-8.3212891-3.7851563-11.4609375-6.7148438c-3.1411133-2.9296875-5.5546875-6.4921875-7.2421875-10.6875
				s-2.53125-8.9648438-2.53125-14.3085938c0-2.4375,0.1865234-5.1210938,0.5625-8.0512695
				c0.3745117-2.9287109,0.84375-5.6601563,1.40625-8.1914063l11.25-52.3125h22.921875l-11.390625,52.453125
				c-0.5166016,2.4853516-0.984375,4.9692383-1.40625,7.453125c-0.421875,2.4848633-0.6328125,4.5942383-0.6328125,6.3286133
				c0,2.71875,0.409668,5.1210938,1.2304688,7.2070313c0.8193359,2.0859375,1.96875,3.8320313,3.4453125,5.2382813
				s3.2099609,2.4726563,5.203125,3.1992188c1.9916992,0.7265625,4.1362305,1.0898438,6.4335938,1.0898438
				c2.671875,0,5.1557617-0.3984375,7.453125-1.1953125c2.2958984-0.796875,4.359375-2.109375,6.1875-3.9375
				s3.4453125-4.2539063,4.8515625-7.2773438s2.5771484-6.7617188,3.515625-11.215332l12.796875-59.34375h22.9213867
				L254.3325195,255.5249023z"/>
			<path class="st9" d="M339.0585938,219.1030273c-1.453125-0.8896484-3.0585938-1.7685547-4.8164063-2.6367188
				c-1.7578125-0.8666992-3.6328125-1.6279297-5.625-2.2851563c-1.9931641-0.6557617-4.0898438-1.1953125-6.2929688-1.6171875
				c-2.2041016-0.421875-4.5-0.6328125-6.890625-0.6328125c-2.671875,0-4.921875,0.3637695-6.75,1.0898438
				c-1.828125,0.7275391-3.28125,1.6293945-4.359375,2.7070313c-1.0791016,1.0791016-1.8525391,2.2392578-2.3203125,3.4804688
				c-0.46875,1.2426758-0.703125,2.402832-0.703125,3.4804688c0,1.546875,0.2460938,2.965332,0.7382813,4.2539063
				c0.4921875,1.2900391,1.265625,2.53125,2.3203125,3.7265625s2.4365234,2.4150391,4.1484375,3.65625
				c1.7109375,1.2426758,3.7851563,2.6137695,6.2226563,4.1132813c3.1875,1.96875,6.0117188,3.949707,8.4726563,5.9414063
				c2.4609375,1.9931641,4.5585938,4.1254883,6.2929688,6.3984375c1.7333984,2.2744141,3.046875,4.7460938,3.9375,7.418457
				c0.8896484,2.671875,1.3359375,5.671875,1.3359375,9c0,1.921875-0.2226563,4.03125-0.6679688,6.328125
				c-0.4462891,2.296875-1.2070313,4.6054688-2.2851563,6.9257813c-1.0791016,2.3203125-2.5664063,4.5585938-4.4648438,6.7148438
				s-4.2783203,4.0546875-7.1367188,5.6953125c-2.859375,1.640625-6.2929688,2.9648438-10.3007813,3.9726563
				s-8.6835938,1.5117188-14.0273438,1.5117188c-3,0-5.9179688-0.2011719-8.7539063-0.5976563
				c-2.8369141-0.3984375-5.53125-0.9394531-8.0859375-1.6171875c-2.5556641-0.6796875-4.9335938-1.4414063-7.1367188-2.2851563
				c-2.2041016-0.84375-4.1484375-1.7109375-5.8359375-2.6015625l3.8671875-19.96875
				c1.7333984,1.265625,3.6210938,2.4609375,5.6601563,3.5859375s4.171875,2.109375,6.3984375,2.953125
				c2.2255859,0.84375,4.5351563,1.5,6.9257813,1.96875s4.8046875,0.703125,7.2421875,0.703125
				c2.671875,0,4.9453125-0.2929688,6.8203125-0.8789063c1.8740234-0.5859375,3.3984375-1.3945313,4.5703125-2.4257813
				c1.1708984-1.03125,2.0146484-2.2265625,2.53125-3.5859375c0.515625-1.359375,0.7734375-2.8125,0.7734375-4.359375
				s-0.2460938-2.9414063-0.7382813-4.1835938s-1.3007813-2.4375-2.4257813-3.5859375s-2.6132813-2.34375-4.4648438-3.5859375
				c-1.8525391-1.2416992-4.1132813-2.637207-6.7851563-4.184082c-2.859375-1.5927734-5.4609375-3.3154297-7.8046875-5.1679688
				c-2.3447266-1.8510742-4.359375-3.9130859-6.046875-6.1875c-1.6875-2.2729492-3-4.8041992-3.9375-7.59375
				c-0.9384766-2.7880859-1.40625-5.894043-1.40625-9.3164063c0-3.8901367,0.7265625-7.7099609,2.1796875-11.4609375
				c1.4521484-3.7495117,3.7265625-7.1015625,6.8203125-10.0546875s7.0419922-5.331543,11.8476563-7.1367188
				c4.8046875-1.8037109,10.5351563-2.7070313,17.1914063-2.7070313c2.765625,0,5.4375,0.152832,8.015625,0.4570313
				c2.5771484,0.3056641,5.0380859,0.715332,7.3828125,1.2304688c2.34375,0.5166016,4.5458984,1.1020508,6.609375,1.7578125
				c2.0625,0.6572266,3.9375,1.3359375,5.625,2.0390625L339.0585938,219.1030273z"/>
			<path class="st9" d="M367.7460938,296.5878906h-22.921875l21.3046875-100.8286133h22.921875L367.7460938,296.5878906z"/>
			<path class="st9" d="M479.3320313,220.1577148c-1.40625-0.7490234-2.9179688-1.4995117-4.5351563-2.25
				c-1.6171875-0.7490234-3.3867188-1.4169922-5.3085938-2.0039063c-1.9228516-0.5854492-3.9970703-1.0654297-6.2226563-1.4414063
				c-2.2265625-0.3745117-4.6523438-0.5625-7.2773438-0.5625c-6.09375,0-11.4726563,1.0439453-16.1367188,3.1289063
				c-4.6650391,2.0864258-8.5898438,4.8867188-11.7773438,8.4023438c-3.1884766,3.515625-5.6015625,7.59375-7.2421875,12.234375
				c-1.6416016,4.640625-2.4609375,9.5395508-2.4609375,14.6953125c0,4.2661133,0.6328125,8.0395508,1.8984375,11.3208008
				s3.0693359,6.0351563,5.4140625,8.2617188c2.34375,2.2265625,5.15625,3.9140625,8.4375,5.0625
				c3.2802734,1.1484375,6.9609375,1.7226563,11.0390625,1.7226563c2.5771484,0,4.9921875-0.1757813,7.2421875-0.5273438
				s4.3828125-0.8203125,6.3984375-1.40625c2.0146484-0.5859375,3.9257813-1.2539063,5.7304688-2.0039063
				c1.8037109-0.75,3.5263672-1.546875,5.1679688-2.390625l-4.78125,21.4453125
				c-3.4697266,1.453125-7.3017578,2.5664063-11.4960938,3.3398438c-4.1953125,0.7734375-8.9189453,1.1601563-14.1679688,1.1601563
				c-7.03125,0-13.3359375-1.0449219-18.9140625-3.1289063c-5.5791016-2.0859375-10.2900391-5.0507813-14.1328125-8.8945313
				c-3.84375-3.84375-6.7851563-8.4492188-8.8242188-13.8164063s-3.0585938-11.3554688-3.0585938-17.965332
				c0-5.2963867,0.5625-10.4643555,1.6875-15.5039063c1.125-5.0380859,2.8232422-9.7963867,5.0976563-14.2734375
				c2.2734375-4.4755859,5.1328125-8.5888672,8.578125-12.3398438c3.4453125-3.7495117,7.4990234-6.9838867,12.1640625-9.703125
				c4.6640625-2.7177734,9.9599609-4.8393555,15.890625-6.3632813c5.9296875-1.5224609,12.4804688-2.2851563,19.6523438-2.2851563
				c2.7177734,0,5.34375,0.140625,7.875,0.421875s4.9453125,0.6450195,7.2421875,1.0898438
				c2.2958984,0.4462891,4.4179688,0.9384766,6.3632813,1.4765625c1.9443359,0.5395508,3.6669922,1.0668945,5.1679688,1.5820313
				L479.3320313,220.1577148z"/>
		</g>
	</g>
</g>
<g id="music_copy" class="st13">
	<linearGradient id="SVGID_7_" gradientUnits="userSpaceOnUse" x1="0" y1="257" x2="512" y2="257">
		<stop  offset="0" style="stop-color:#960505"/>
		<stop  offset="0.2937581" style="stop-color:#8D0A0A"/>
		<stop  offset="0.7805237" style="stop-color:#731919"/>
		<stop  offset="0.994382" style="stop-color:#662020"/>
	</linearGradient>
	<rect y="1" class="st6" width="512" height="512"/>
	<g id="Layer_3_copy_9">
		<text transform="matrix(1 0 0 1 115.1137695 296.5878906)" class="st9 st19 st8">XXX</text>
		<g class="st11">
			<path class="st9" d="M180.3637695,246.7358398l19.96875,49.8520508h-25.734375l-10.125-31.9921875
				c-0.1879883-0.515625-0.3408203-1.125-0.4570313-1.828125c-0.1176758-0.703125-0.2109375-1.4179688-0.28125-2.1445313
				s-0.1298828-1.4296875-0.1757813-2.109375c-0.0473633-0.6796875-0.0703125-1.2304688-0.0703125-1.652832h-0.28125
				c-0.3759766,0.7973633-0.855957,1.9223633-1.4414063,3.3754883c-0.5869141,1.453125-1.3007813,2.765625-2.1445313,3.9375
				l-24.1875,32.4140625h-28.125l43.2421875-51.9614258l-19.4765625-48.8671875h26.5078125l8.9296875,31.0078125
				c0.140625,0.5625,0.269043,1.2075195,0.3867188,1.9335938c0.1162109,0.7275391,0.2109375,1.4658203,0.28125,2.2148438
				c0.0703125,0.7504883,0.1162109,1.4536133,0.140625,2.109375c0.0229492,0.6572266,0.0351563,1.1953125,0.0351563,1.6171875
				h0.3515625c0.140625-0.3745117,0.3271484-0.8544922,0.5625-1.4414063c0.2338867-0.5854492,0.5151367-1.2304688,0.84375-1.9335938
				c0.3271484-0.703125,0.6679688-1.394043,1.0195313-2.0742188c0.3515625-0.6787109,0.7382813-1.3007813,1.1601563-1.8632813
				l24.046875-31.5703125h26.5078125L180.3637695,246.7358398z"/>
			<path class="st9" d="M274.6523438,246.7358398l19.96875,49.8520508h-25.734375l-10.125-31.9921875
				c-0.1875-0.515625-0.3398438-1.125-0.4570313-1.828125s-0.2109375-1.4179688-0.28125-2.1445313
				s-0.1289063-1.4296875-0.1757813-2.109375s-0.0703125-1.2304688-0.0703125-1.652832h-0.28125
				c-0.375,0.7973633-0.8554688,1.9223633-1.440918,3.3754883c-0.5869141,1.453125-1.3007813,2.765625-2.1445313,3.9375
				l-24.1875,32.4140625h-28.125l43.2421875-51.9614258l-19.4765625-48.8671875h26.5078125l8.9291992,31.0078125
				c0.140625,0.5625,0.2695313,1.2075195,0.3867188,1.9335938c0.1171875,0.7275391,0.2109375,1.4658203,0.28125,2.2148438
				c0.0703125,0.7504883,0.1171875,1.4536133,0.140625,2.109375c0.0234375,0.6572266,0.0351563,1.1953125,0.0351563,1.6171875
				h0.3515625c0.140625-0.3745117,0.328125-0.8544922,0.5625-1.4414063c0.234375-0.5854492,0.515625-1.2304688,0.84375-1.9335938
				s0.6679688-1.394043,1.0195313-2.0742188c0.3515625-0.6787109,0.7382813-1.3007813,1.1601563-1.8632813l24.046875-31.5703125
				h26.5078125L274.6523438,246.7358398z"/>
			<path class="st9" d="M368.9414063,246.7358398l19.96875,49.8520508h-25.734375l-10.125-31.9921875
				c-0.1875-0.515625-0.3408203-1.125-0.4570313-1.828125c-0.1171875-0.703125-0.2109375-1.4179688-0.28125-2.1445313
				s-0.1298828-1.4296875-0.1757813-2.109375c-0.046875-0.6796875-0.0703125-1.2304688-0.0703125-1.652832h-0.28125
				c-0.3759766,0.7973633-0.8554688,1.9223633-1.4414063,3.3754883c-0.5869141,1.453125-1.3007813,2.765625-2.1445313,3.9375
				l-24.1875,32.4140625h-28.125l43.2421875-51.9614258l-19.4765625-48.8671875h26.5078125l8.9296875,31.0078125
				c0.140625,0.5625,0.2695313,1.2075195,0.3867188,1.9335938c0.1162109,0.7275391,0.2109375,1.4658203,0.28125,2.2148438
				c0.0703125,0.7504883,0.1162109,1.4536133,0.140625,2.109375c0.0234375,0.6572266,0.0351563,1.1953125,0.0351563,1.6171875
				h0.3515625c0.140625-0.3745117,0.3271484-0.8544922,0.5625-1.4414063c0.234375-0.5854492,0.515625-1.2304688,0.84375-1.9335938
				c0.3271484-0.703125,0.6679688-1.394043,1.0195313-2.0742188c0.3515625-0.6787109,0.7382813-1.3007813,1.1601563-1.8632813
				l24.046875-31.5703125h26.5078125L368.9414063,246.7358398z"/>
		</g>
	</g>
	<g id="layer1">
		
			<linearGradient id="rect3663_1_" gradientUnits="userSpaceOnUse" x1="249.918457" y1="331.4755859" x2="249.9184418" y2="558.4521484">
			<stop  offset="0" style="stop-color:#960505"/>
			<stop  offset="0.2937581" style="stop-color:#8D0A0A"/>
			<stop  offset="0.7805237" style="stop-color:#731919"/>
			<stop  offset="0.994382" style="stop-color:#662020"/>
		</linearGradient>
		<path id="rect3663" class="st7" d="M-92.4882813,331.4755859l-49.7685547,226.9765625h712.0009766
			c40.0712891,0,72.3505859-32.2792969,72.3505859-72.3496094v-82.2753906
			c0-40.0703125-32.2792969-72.3515625-72.3505859-72.3515625H-92.4882813z"/>
		
			<linearGradient id="text3669_1_" gradientUnits="userSpaceOnUse" x1="271.6074219" y1="368.2158203" x2="271.6074219" y2="525.5146484">
			<stop  offset="0" style="stop-color:#960505"/>
			<stop  offset="0.2937581" style="stop-color:#8D0A0A"/>
			<stop  offset="0.7805237" style="stop-color:#731919"/>
			<stop  offset="0.994382" style="stop-color:#662020"/>
		</linearGradient>
		<path id="text3669" class="st1" d="M165.546875,525.5146484h-38.1533203l32.3417969-131.0117188h-54.3242188l6.4433594-26.2871094
			h145.9189453l-6.4433594,26.2871094h-53.5664063L165.546875,525.5146484z M335.7236328,525.5146484h-40.6806641
			l-23.3632813-157.2988281h38.0273438l13.6357422,118.9921875l76.6865234-118.9921875h37.7744141L335.7236328,525.5146484z"/>
		
			<linearGradient id="text3678_1_" gradientUnits="userSpaceOnUse" x1="111.159668" y1="-21.753418" x2="111.1596527" y2="288.2612305">
			<stop  offset="0" style="stop-color:#960505"/>
			<stop  offset="0.2937581" style="stop-color:#8D0A0A"/>
			<stop  offset="0.7805237" style="stop-color:#731919"/>
			<stop  offset="0.994382" style="stop-color:#662020"/>
		</linearGradient>
		<path id="text3678" class="st2" d="M-13.90625-15.5966797C-37.3964844,85.6787109-60.8232422,186.96875-84.2382813,288.2607422
			c37.875,0,75.7509766,0,113.6259766,0c9.5820313-41.296875,19.3046875-78.6035156,28.7636719-119.9238281h90.9492188
			c-9.2451172,39.9765625-18.5429688,79.9414063-27.7529297,119.9238281c37.8759766,0,75.7509766,0,113.6269531,0
			c23.9414063-103.3222656,47.8457031-206.6523438,71.5839844-310.0141602c-37.7685547,0-75.5371094,0-113.3046875,0
			c-8.2949219,35.6723633-16.7285156,71.3168945-25.1103516,106.9711914H77.1953125
			c7.9482422-34.331543,15.8701172-72.6313477,23.7773438-106.9711914c-37.8222656,0-75.6435547,0-113.4658203,0
			l-0.9140625,3.9819336L-13.90625-15.5966797z"/>
		
			<linearGradient id="text3682_1_" gradientUnits="userSpaceOnUse" x1="469.5136719" y1="-22.2861328" x2="469.5136719" y2="289.1791992">
			<stop  offset="0" style="stop-color:#960505"/>
			<stop  offset="0.2937581" style="stop-color:#8D0A0A"/>
			<stop  offset="0.7805237" style="stop-color:#731919"/>
			<stop  offset="0.994382" style="stop-color:#662020"/>
		</linearGradient>
		<path id="text3682" class="st10" d="M481.3505859-22.0102539c-39.3642578,0.6132813-78.8662109,0.0771484-118.2822266,0.2568359
			c-22.0664063,103.5043945-44.1240234,207.0102539-66.1357422,310.5258789
			c86.7304688-0.5546875,185.0166016,7.1621094,262.4550781-26.0380859
			c83.1552734-49.5429688,109.8203125-160.4208984,51.2148438-239.3388672
			C580.4775391-11.1333008,527.9511719-24.4238281,481.3505859-22.0102539z M486.4013672,56.1025391
			c26.3105469-2.1503906,50.9423828,17.0771484,48.9082031,40.0175781
			c6.5332031,43.84375-11.7246094,98.8837891-63.9189453,112.2314453
			c-16.5927734,2.8642578-34.7265625,2.5019531-52.2441406,2.3085938
			c10.8876953-51.2626953,21.7744141-102.5253906,32.6621094-153.7880859
			C463.3935547,56.8891602,474.9746094,57.1835938,486.4013672,56.1025391z"/>
	</g>
</g>
</svg>
