<?xml version="1.0" encoding="utf-8"?>
<!DOCTYPE svg PUBLIC "-//W3C//DTD SVG 1.1//EN" "http://www.w3.org/Graphics/SVG/1.1/DTD/svg11.dtd">
<svg version="1.1" id="music" xmlns="http://www.w3.org/2000/svg" viewBox="0 0 512 512">
<style type="text/css">
<![CDATA[
	.st0{fill:url(#SVGID_1_);}
	.st1{fill:#FFFFFF;}
]]>
</style>
<linearGradient id="SVGID_1_" gradientUnits="userSpaceOnUse" x1="255.9995117" y1="0" x2="255.9994965" y2="512.0004883">
	<stop  offset="0" style="stop-color:#A423DF"/>
	<stop  offset="1" style="stop-color:#6D2C88"/>
</linearGradient>
<rect class="st0" width="512" height="512"/>
<path class="st1" d="M418.859375,339.859375V96.265625l0.1171875-0.8125l-0.1171875,0.0234375V95.453125l-0.2421875,0.0390625
	L181.609375,127.234375h-0.015625v192.46875c-9.3828125-3.0078125-19.9453125-4.2109375-30.9375-3.1328125
	c-34.828125,3.375-60.8984375,28.171875-58.265625,55.3515625c2.6484375,27.203125,33,46.5234375,67.8125,43.140625
	c34.84375-3.375,60.921875-28.1640625,58.28125-55.375c-0.0546875-0.46875,0.0703125-1.3515625,0.0703125-1.3515625V191.375
	L381.90625,167.515625v133.7109375c-9.375-3-19.921875-4.21875-30.9375-3.15625
	c-34.828125,3.3828125-60.8984375,28.1875-58.2734375,55.3828125c2.65625,27.21875,33.015625,46.515625,67.8203125,43.1328125
	C395.34375,393.1875,421.4375,368.4140625,418.78125,341.21875
	C418.7421875,340.7578125,418.859375,339.859375,418.859375,339.859375z"/>
</svg>
