<?xml version="1.0" encoding="utf-8"?>

<!DOCTYPE svg PUBLIC "-//W3C//DTD SVG 1.1//EN" "http://www.w3.org/Graphics/SVG/1.1/DTD/svg11.dtd">
<svg version="1.1" id="Layer_1" xmlns="http://www.w3.org/2000/svg"
      viewBox="0 0 512 512">
<style type="text/css">
<![CDATA[
    .st0{fill:url(#SVGID_1_);}
    .st1{fill:#FFFFFF;}
]]>
</style>
<rect class="st0" width="512" height="512"/>
<linearGradient id="SVGID_1_" gradientUnits="userSpaceOnUse" x1="255.9995117" y1="0" x2="255.9994965" y2="512.0004883">
    <stop  offset="0" style="stop-color:#A423DF"/>
    <stop  offset="1" style="stop-color:#6D2C88"/>
</linearGradient>
<g>
    <polygon id="play_button_2_" class="st1" points="197.46875,273.1796875 324.03125,346.25 197.46875,419.3203125     "/>
    <path class="st1" d="M148.2939453,275.9785156v134.7451172c3.1762695,0.4511719,6.421875,0.6923828,9.7250977,0.6923828h9.7231445
        V275.2822266h-9.7231445C154.7177734,275.2822266,151.472168,275.5234375,148.2939453,275.9785156z"/>
    <path class="st1" d="M353.3232422,275.2822266v136.1337891h9.7226563c3.3017578,0,6.546875-0.2412109,9.7285156-0.6923828
        V275.9785156c-3.1816406-0.4550781-6.4267578-0.6923828-9.7285156-0.6923828L353.3232422,275.2822266L353.3232422,275.2822266z"/>
    <path class="st1" d="M416.1132813,255.8349609c0-85.9238281-69.6552734-155.5771484-155.5800781-155.5771484
        c-85.9272461,0-155.5800781,69.6533203-155.5800781,155.5771484c0,18.6650391,3.2900391,36.5576172,9.3149414,53.1376953
        c-5.9169922,10.0917969-9.3149414,21.8359375-9.3149414,34.3769531c0,27.1494141,15.8979492,50.5859375,38.8959961,61.5146484
        V281.8339844c-6.1162109,2.9003906-11.7241211,6.703125-16.6708984,11.2128906
        c-1.8193359-8.8798828-2.7792969-18.0683594-2.7792969-27.4882813c0-75.1845703,60.953125-136.1328125,136.1352539-136.1328125
        c75.1845703,0,136.1289063,60.9492188,136.1289063,136.1328125c0,9.4160156-0.953125,18.6074219-2.7763672,27.4882813
        c-4.9511719-4.5097656-10.5537109-8.3125-16.6689453-11.2128906v123.0263672
        c22.9941406-10.9267578,38.8964844-34.3652344,38.8964844-61.5107422c0-12.5410156-3.4013672-24.2871094-9.3183594-34.3769531
        C412.8222656,292.3925781,416.1132813,274.5,416.1132813,255.8349609z"/>
</g>
</svg>
