<?xml version="1.0" encoding="utf-8"?>
<!DOCTYPE svg PUBLIC "-//W3C//DTD SVG 1.1//EN" "http://www.w3.org/Graphics/SVG/1.1/DTD/svg11.dtd">
<svg version="1.1" xmlns="http://www.w3.org/2000/svg" viewBox="0 0 512 512">
<style type="text/css">
<![CDATA[
	.st0{display:inline;fill:#4A148C;}
	.st1{display:none;fill:#FFFFFF;}
	.st2{display:inline;fill:url(#text3669_1_);}
	.st3{fill-rule:evenodd;clip-rule:evenodd;fill:#1383E0;}
	.st4{display:inline;fill:url(#text3678_1_);}
	.st5{display:inline;fill:#C62828;}
	.st6{display:inline;fill:#FFFFFF;}
	.st7{fill:url(#SVGID_2_);}
	.st8{fill:url(#SVGID_8_);}
	.st9{fill:url(#rect3663_1_);}
	.st10{font-size:144;}
	.st11{fill:#FFFFFF;}
	.st12{display:inline;fill:url(#text3682_1_);}
	.st13{display:inline;}
	.st14{display:inline;fill:#D32F2F;}
	.st15{display:inline;fill-rule:evenodd;clip-rule:evenodd;fill:#FFFFFF;}
	.st16{fill-rule:evenodd;clip-rule:evenodd;fill:#FDFDFE;}
	.st17{fill-rule:evenodd;clip-rule:evenodd;fill:#FEFEFE;}
	.st18{display:none;}
	.st19{display:inline;fill:url(#SVGID_1_);}
	.st20{display:inline;fill:url(#SVGID_3_);}
	.st21{display:inline;fill:url(#SVGID_4_);}
	.st22{display:inline;fill:url(#SVGID_5_);}
	.st23{display:inline;fill:url(#SVGID_6_);}
	.st24{display:inline;fill:url(#SVGID_7_);}
	.st25{font-family:'SegoeUI-BoldItalic';}
]]>
</style>

<g id="hd_tv">
	<linearGradient id="SVGID_2_" gradientUnits="userSpaceOnUse" x1="255.9995117" y1="0" x2="255.9994965" y2="512.0004883">
		<stop  offset="0" style="stop-color:#0C4C9B"/>
		<stop  offset="0.2766562" style="stop-color:#104A92"/>
		<stop  offset="0.7351259" style="stop-color:#1A4678"/>
		<stop  offset="0.994382" style="stop-color:#214367"/>
	</linearGradient>
	<rect class="st7" width="512" height="512"/>
	<g id="Layer_3">
		<g>
			<path class="st11" d="M220.3461914,347.5878906h-46.0205078l17.2753906-82.1289063h-83.4033203l-17.4169922,82.1289063
				H44.6186523L87.8071289,144.53125h46.1621094l-17.4169922,80.9960938h83.5449219l17.4169922-80.9960938h46.0209961
				L220.3461914,347.5878906z"/>
			<path class="st11" d="M471.546875,226.6601563c0,10.6689453-1.0859375,21.0766602-3.2558594,31.2226563
				c-2.1738281,10.1494141-5.4511719,19.7070313-9.8417969,28.6748047
				c-4.3886719,8.9697266-9.9355469,17.1826172-16.6386719,24.6386719
				c-6.703125,7.4580078-14.609375,13.8769531-23.7167969,19.2578125
				c-9.1113281,5.3808594-19.4707031,9.5830078-31.0820313,12.6025391c-11.6113281,3.0224609-24.4980469,4.53125-38.6582031,4.53125
				h-82.1289063L309.4140625,144.53125H380.78125c14.9140625,0,28.0117188,2.03125,39.2949219,6.0888672
				c11.2792969,4.0600586,20.7441406,9.699707,28.390625,16.9213867s13.4023438,15.859375,17.2753906,25.9130859
				C469.6113281,203.5083008,471.546875,214.5776367,471.546875,226.6601563z M423.1191406,230.2001953
				c0-7.5512695-1.0605469-14.3237305-3.1855469-20.3198242c-2.1230469-5.9936523-5.3808594-11.0668945-9.7695313-15.222168
				c-4.390625-4.152832-9.9375-7.3388672-16.6386719-9.5581055c-6.7050781-2.2167969-14.6347656-3.3276367-23.7890625-3.3276367
				h-22.2324219l-27.328125,128.7158203h27.8945313c11.5175781,0,21.9003906-1.9121094,31.1523438-5.734375
				c9.2519531-3.8242188,17.1347656-9.2509766,23.6484375-16.2851563c6.5136719-7.03125,11.515625-15.4804688,15.0097656-25.3457031
				C421.3710938,253.2592773,423.1191406,242.2851563,423.1191406,230.2001953z"/>
		</g>
		<g class="st18">
			<path class="st6" d="M255.4091797,230.2089844h-43.3984375L185.3701172,356h-34.9121094l26.5332031-125.7910156h-43.9355469
				l6.1230469-28.2519531h122.3535156L255.4091797,230.2089844z"/>
			<path class="st6" d="M329.2080078,356h-38.2421875l-19.765625-154.0429688h35.5566406l10.4199219,106.5625
				c0.2148438,2.5078125,0.3388672,5.0673828,0.3759766,7.6806641c0.0351563,2.6152344-0.1611328,5.0322266-0.5908203,7.2509766
				h0.859375c0.6445313-2.0761719,1.4853516-4.4042969,2.5244141-6.9824219
				c1.0371094-2.578125,2.3095703-5.3710938,3.8134766-8.3789063l53.4960938-106.1328125h38.2421875L329.2080078,356z"/>
		</g>
		<g>
			<g>
				<polygon class="st1" points="190.097168,216 185.4941406,216 181.3701172,235 146.4580078,235 150.5654297,216 106.5522461,216 
					123.9692383,135 77.8071289,135 34.6186523,338 80.7807617,338 98.1977539,255 181.6010742,255 164.3256836,338 
					210.3461914,338 253.5351563,135 207.5141602,135 				"/>
				<polygon class="st11" points="208.0107422,109 251.4091797,109 257.5322266,81 135.1787109,81 129.0556641,109 172.9912109,109 
					150.5654297,216 185.4941406,216 				"/>
			</g>
			<g>
				<path class="st1" d="M313.5527344,194.9746094C313.5878906,197.5898438,313.3916016,200,312.9619141,202h0.859375
					c0.6445313-2,1.4853516-4.1787109,2.5244141-6.7568359c1.0371094-2.578125,2.3095703-5.0244141,3.8134766-8.0322266
					L346.6513672,135h-38.65625l5.1816406,52.640625C313.3916016,190.1484375,313.515625,192.3613281,313.5527344,194.9746094z"/>
				<path class="st1" d="M455.7421875,183.4550781c-3.8730469-10.0546875-9.6289063-18.6914063-17.2753906-25.9140625
					c-7.6464844-7.2207031-17.1113281-12.8613281-28.390625-16.9208984c-8.4863281-3.0517578-18-4.9555664-28.5400391-5.7128906
					L360.78125,171.7890625c8.7089844,0.0820313,16.2988281,1.1796875,22.7441406,3.3105469
					c6.7011719,2.2197266,12.2480469,5.40625,16.6386719,9.5585938c4.3886719,4.1552734,7.6464844,9.2285156,9.7695313,15.2226563
					c2.125,5.9960938,3.1855469,12.7675781,3.1855469,20.3193359c0,12.0849609-1.7480469,23.0595703-5.2382813,32.9228516
					c-3.4941406,9.8652344-8.4960938,18.3144531-15.0097656,25.3457031
					c-6.5136719,7.0341797-14.3964844,12.2167969-23.6484375,16.0410156C359.9707031,298.3320313,349.5878906,300,338.0703125,300
					h-27.8945313l13.9042969-65h-37.1142578l-3.3564453-25.9550781L256.2246094,338h82.1289063
					c14.1601563,0,27.046875-1.7148438,38.6582031-4.7373047c11.6113281-3.0195313,21.9707031-7.3251953,31.0820313-12.7060547
					c9.1074219-5.3808594,17.0136719-11.8505859,23.7167969-19.3085938c6.703125-7.4560547,12.25-15.6953125,16.6386719-24.6650391
					c4.390625-8.9677734,7.6679688-18.5380859,9.8417969-28.6875c2.1699219-10.1464844,3.2558594-20.5595703,3.2558594-31.2285156
					C461.546875,204.5849609,459.6113281,193.5078125,455.7421875,183.4550781z"/>
				<path class="st11" d="M381.5361328,135.1630859L411.8974609,81h-38.2421875l-27.0039063,54H370.78125
					C374.4785156,135,378.0625,134.9135742,381.5361328,135.1630859z"/>
				<path class="st1" d="M337.5039063,172l-13.4238281,63h1.1279297l35.5732422-63.0976563
					C360.4306641,171.8984375,360.0908203,172,359.7363281,172H337.5039063z"/>
				<polygon class="st11" points="307.9951172,135 302.7568359,81 267.2001953,81 283.609375,209.0947266 299.4140625,135 				"/>
			</g>
		</g>
	</g>
</g>



<g id="hd" class="st18">
	<linearGradient id="SVGID_4_" gradientUnits="userSpaceOnUse" x1="255.9995117" y1="0" x2="255.9994965" y2="512.0004883">
		<stop  offset="0" style="stop-color:#960505"/>
		<stop  offset="0.2937581" style="stop-color:#8D0A0A"/>
		<stop  offset="0.7805237" style="stop-color:#731919"/>
		<stop  offset="0.994382" style="stop-color:#662020"/>
	</linearGradient>
	<rect class="st21" width="512" height="512"/>
	<g id="Layer_3_copy_4" class="st13">
		<g>
			<path class="st11" d="M218.6875,358.3681641h-46.0195313l17.2753906-82.1289063h-83.4038086l-17.4169922,82.1289063H42.9604492
				l43.1884766-203.0566406h46.1621094l-17.4169922,80.9960938h83.5454102l17.4160156-80.9960938h46.0214844L218.6875,358.3681641z"
				/>
			<path class="st11" d="M469.8896484,237.4404297c0,10.6689453-1.0859375,21.0771484-3.2568359,31.2236328
				c-2.1728516,10.1484375-5.4511719,19.7070313-9.8417969,28.6738281
				c-4.3886719,8.9697266-9.9355469,17.1826172-16.6376953,24.6386719
				c-6.7041016,7.4589844-14.609375,13.8769531-23.7177734,19.2578125
				c-9.1113281,5.3808594-19.4707031,9.5820313-31.0820313,12.6025391c-11.6113281,3.0224609-24.4970703,4.53125-38.6572266,4.53125
				h-82.1289063l43.1884766-203.0566406h71.3671875c14.9150391,0,28.0126953,2.03125,39.2949219,6.0888672
				c11.2792969,4.0600586,20.7441406,9.699707,28.390625,16.9213867s13.4033203,15.859375,17.2753906,25.9130859
				C467.9541016,214.2885742,469.8896484,225.3579102,469.8896484,237.4404297z M421.4619141,240.9804688
				c0-7.5512695-1.0615234-14.3237305-3.1865234-20.3198242c-2.1230469-5.9936523-5.3808594-11.0668945-9.7695313-15.222168
				c-4.390625-4.152832-9.9365234-7.3388672-16.6386719-9.5581055c-6.7041016-2.2167969-14.6337891-3.3276367-23.7890625-3.3276367
				h-22.2314453l-27.3291016,128.7158203h27.8955078c11.5166016,0,21.8994141-1.9111328,31.1523438-5.7353516
				c9.2509766-3.8222656,17.1337891-9.25,23.6474609-16.2832031c6.5136719-7.03125,11.5166016-15.4814453,15.0097656-25.3476563
				C419.7138672,264.0390625,421.4619141,253.0654297,421.4619141,240.9804688z"/>
		</g>
	</g>
</g>



</svg>
