<?xml version="1.0" encoding="utf-8"?>
<!DOCTYPE svg PUBLIC "-//W3C//DTD SVG 1.1//EN" "http://www.w3.org/Graphics/SVG/1.1/DTD/svg11.dtd">
<svg version="1.1" id="Layer_1" xmlns="http://www.w3.org/2000/svg" viewBox="0 0 512 512">
<style type="text/css">
<![CDATA[
	.st0{display:none;fill:#FFFFFF;}
	.st1{fill:url(#SVGID_1_);}
	.st2{fill:#FFFFFF;}
]]>
</style>
<g id="hd_tv">
	
		<linearGradient id="SVGID_1_" gradientUnits="userSpaceOnUse" x1="306" y1="373" x2="305.9999695" y2="-139" gradientTransform="matrix(1 0 0 -1 -50 373)">
		<stop  offset="0" style="stop-color:#0C4C9B"/>
		<stop  offset="0.2766562" style="stop-color:#104A92"/>
		<stop  offset="0.7351259" style="stop-color:#1A4678"/>
		<stop  offset="0.994382" style="stop-color:#214367"/>
	</linearGradient>
	<rect class="st1" width="512" height="512"/>
	<g id="Layer_3">
		<g>
			<path class="st2" d="M220.3461914,347.5878906h-46.0205078l17.2753906-82.1289063h-83.4033203l-17.4169922,82.1289063H44.6186523
				L87.8071289,144.53125h46.1621094l-17.4169922,80.9960938h83.5449219l17.4169922-80.9960938h46.0209961L220.3461914,347.5878906z
				"/>
			<path class="st2" d="M471.546875,226.6601563c0,10.6689453-1.0859375,21.0766602-3.2558594,31.2226563
				c-2.1738281,10.1494141-5.4511719,19.7070313-9.8417969,28.6748047
				c-4.3886719,8.9697266-9.9355469,17.1826172-16.6386719,24.6386719
				c-6.703125,7.4580078-14.609375,13.8769531-23.7167969,19.2578125
				c-9.1113281,5.3808594-19.4707031,9.5830078-31.0820313,12.6025391c-11.6113281,3.0224609-24.4980469,4.53125-38.6582031,4.53125
				h-82.1289063L309.4140625,144.53125H380.78125c14.9140625,0,28.0117188,2.03125,39.2949219,6.0888672
				c11.2792969,4.0600586,20.7441406,9.699707,28.390625,16.9213867s13.4023438,15.859375,17.2753906,25.9130859
				C469.6113281,203.5083008,471.546875,214.5776367,471.546875,226.6601563z M423.1191406,230.2001953
				c0-7.5512695-1.0605469-14.3237305-3.1855469-20.3198242c-2.1230469-5.9936523-5.3808594-11.0668945-9.7695313-15.222168
				c-4.390625-4.152832-9.9375-7.3388672-16.6386719-9.5581055c-6.7050781-2.2167969-14.6347656-3.3276367-23.7890625-3.3276367
				h-22.2324219l-27.328125,128.7158203h27.8945313c11.5175781,0,21.9003906-1.9121094,31.1523438-5.734375
				c9.2519531-3.8242188,17.1347656-9.2509766,23.6484375-16.2851563c6.5136719-7.03125,11.515625-15.4804688,15.0097656-25.3457031
				C421.3710938,253.2592773,423.1191406,242.2851563,423.1191406,230.2001953z"/>
		</g>
		<g>
			<g>
				<polygon class="st0" points="190.097168,216 185.4941406,216 181.3701172,235 146.4580078,235 150.5654297,216 106.5522461,216 
					123.9692383,135 77.8071289,135 34.6186523,338 80.7807617,338 98.1977539,255 181.6010742,255 164.3256836,338 
					210.3461914,338 253.5351563,135 207.5141602,135 				"/>
				<polygon class="st2" points="208.0107422,109 251.4091797,109 257.5322266,81 135.1787109,81 129.0556641,109 172.9912109,109 
					150.5654297,216 185.4941406,216 				"/>
			</g>
			<g>
				<path class="st0" d="M313.5527344,194.9746094C313.5878906,197.5898438,313.3916016,200,312.9619141,202h0.859375
					c0.6445313-2,1.4853516-4.1787109,2.5244141-6.7568359c1.0371094-2.578125,2.3095703-5.0244141,3.8134766-8.0322266
					L346.6513672,135h-38.65625l5.1816406,52.640625C313.3916016,190.1484375,313.515625,192.3613281,313.5527344,194.9746094z"/>
				<path class="st0" d="M455.7421875,183.4550781c-3.8730469-10.0546875-9.6289063-18.6914063-17.2753906-25.9140625
					c-7.6464844-7.2207031-17.1113281-12.8613281-28.390625-16.9208984c-8.4863281-3.0517578-18-4.9555664-28.5400391-5.7128906
					L360.78125,171.7890625c8.7089844,0.0820313,16.2988281,1.1796875,22.7441406,3.3105469
					c6.7011719,2.2197266,12.2480469,5.40625,16.6386719,9.5585938c4.3886719,4.1552734,7.6464844,9.2285156,9.7695313,15.2226563
					c2.125,5.9960938,3.1855469,12.7675781,3.1855469,20.3193359c0,12.0849609-1.7480469,23.0595703-5.2382813,32.9228516
					c-3.4941406,9.8652344-8.4960938,18.3144531-15.0097656,25.3457031
					c-6.5136719,7.0341797-14.3964844,12.2167969-23.6484375,16.0410156C359.9707031,298.3320313,349.5878906,300,338.0703125,300
					h-27.8945313l13.9042969-65h-37.1142578l-3.3564453-25.9550781L256.2246094,338h82.1289063
					c14.1601563,0,27.046875-1.7148438,38.6582031-4.7373047c11.6113281-3.0195313,21.9707031-7.3251953,31.0820313-12.7060547
					c9.1074219-5.3808594,17.0136719-11.8505859,23.7167969-19.3085938c6.703125-7.4560547,12.25-15.6953125,16.6386719-24.6650391
					c4.390625-8.9677734,7.6679688-18.5380859,9.8417969-28.6875c2.1699219-10.1464844,3.2558594-20.5595703,3.2558594-31.2285156
					C461.546875,204.5849609,459.6113281,193.5078125,455.7421875,183.4550781z"/>
				<path class="st2" d="M381.5361328,135.1630859L411.8974609,81h-38.2421875l-27.0039063,54H370.78125
					C374.4785156,135,378.0625,134.9135742,381.5361328,135.1630859z"/>
				<path class="st0" d="M337.5039063,172l-13.4238281,63h1.1279297l35.5732422-63.0976563
					C360.4306641,171.8984375,360.0908203,172,359.7363281,172H337.5039063z"/>
				<polygon class="st2" points="307.9951172,135 302.7568359,81 267.2001953,81 283.609375,209.0947266 299.4140625,135 				"/>
			</g>
		</g>
	</g>
</g>
<g>
	<path class="st2" d="M142.4541016,439.8007813V470.5h-9.515625v-81.2226563h22.3164063
		c8.6845703,0,15.4150391,2.1152344,20.1923828,6.34375c4.7763672,4.2294922,7.1650391,10.1953125,7.1650391,17.8984375
		s-2.6533203,14.0097656-7.9580078,18.9179688c-5.3056641,4.9091797-12.4707031,7.3632813-21.4951172,7.3632813H142.4541016z
		 M142.4541016,397.8867188v33.3046875h9.96875c6.5703125,0,11.5830078-1.5009766,15.0380859-4.5029297
		s5.1826172-7.2402344,5.1826172-12.7158203c0-10.7236328-6.34375-16.0859375-19.03125-16.0859375H142.4541016z"/>
	<path class="st2" d="M251.8271484,470.5h-10.5351563l-8.609375-22.7695313h-34.4375L190.1455078,470.5h-10.5917969
		l31.1523438-81.2226563h9.8554688L251.8271484,470.5z M229.5673828,439.1777344l-12.7441406-34.6074219
		c-0.4160156-1.1328125-0.8310547-2.9453125-1.2460938-5.4375h-0.2265625c-0.3779297,2.3037109-0.8125,4.1162109-1.3027344,5.4375
		l-12.6308594,34.6074219H229.5673828z"/>
	<path class="st2" d="M317.5302734,467.1015625c-6.0039063,3.171875-13.4804688,4.7578125-22.4296875,4.7578125
		c-11.5546875,0-20.8066406-3.71875-27.7539063-11.1582031c-6.9482422-7.4384766-10.421875-17.1992188-10.421875-29.2832031
		c0-12.9892578,3.9082031-23.4863281,11.7246094-31.4921875c7.8164063-8.0048828,17.7285156-12.0078125,29.7363281-12.0078125
		c7.703125,0,14.0839844,1.1142578,19.1445313,3.3417969v10.1386719c-5.8154297-3.2470703-12.234375-4.8710938-19.2578125-4.8710938
		c-9.3271484,0-16.8886719,3.1152344-22.6845703,9.3457031c-5.796875,6.2304688-8.6943359,14.5566406-8.6943359,24.9785156
		c0,9.8935547,2.7089844,17.7763672,8.1279297,23.6474609c5.4179688,5.8720703,12.5263672,8.8076172,21.3251953,8.8076172
		c8.15625,0,15.2167969-1.8125,21.1835938-5.4375V467.1015625z"/>
	<path class="st2" d="M390.5966797,470.5h-13.2539063l-31.3789063-37.15625
		c-1.1708984-1.3964844-1.8886719-2.3408203-2.1523438-2.8320313h-0.2265625V470.5h-9.515625v-81.2226563h9.515625v38.1757813
		h0.2265625c0.5283203-0.8300781,1.2460938-1.7558594,2.1523438-2.7753906l30.359375-35.4003906h11.8378906l-34.8339844,38.96875
		L390.5966797,470.5z"/>
</g>
</svg>
